<svg xmlns="http://www.w3.org/2000/svg" xmlns:xlink="http://www.w3.org/1999/xlink" width="436" height="116" viewBox="0 0 436 116"><defs><style>.a{fill:#f5f6fa;}.b{fill:#3d4351;font-size:20px;font-family:Assistant-Regular, Assistant;}.c{fill:#707070;}.d{fill:#223345;}.e{fill:#bf8afc;}.f{filter:url(#g);}.g{filter:url(#e);}.h{filter:url(#c);}.i{filter:url(#a);}</style><filter id="a" x="0" y="0" width="86" height="86" filterUnits="userSpaceOnUse"><feOffset dy="3" input="SourceAlpha"/><feGaussianBlur stdDeviation="3" result="b"/><feFlood flood-opacity="0.161"/><feComposite operator="in" in2="b"/><feComposite in="SourceGraphic"/></filter><filter id="c" x="116" y="0" width="86" height="86" filterUnits="userSpaceOnUse"><feOffset dy="3" input="SourceAlpha"/><feGaussianBlur stdDeviation="3" result="d"/><feFlood flood-opacity="0.161"/><feComposite operator="in" in2="d"/><feComposite in="SourceGraphic"/></filter><filter id="e" x="232" y="0" width="86" height="86" filterUnits="userSpaceOnUse"><feOffset dy="3" input="SourceAlpha"/><feGaussianBlur stdDeviation="3" result="f"/><feFlood flood-opacity="0.161"/><feComposite operator="in" in2="f"/><feComposite in="SourceGraphic"/></filter><filter id="g" x="350" y="0" width="86" height="86" filterUnits="userSpaceOnUse"><feOffset dy="3" input="SourceAlpha"/><feGaussianBlur stdDeviation="3" result="h"/><feFlood flood-opacity="0.161"/><feComposite operator="in" in2="h"/><feComposite in="SourceGraphic"/></filter></defs><g transform="translate(-22 -3109.058)"><g transform="translate(31 3115.058)"><g class="i" transform="matrix(1, 0, 0, 1, -9, -6)"><path class="a" d="M34,0A34,34,0,1,1,0,34,34,34,0,0,1,34,0Z" transform="translate(9 6)"/></g><text class="b" transform="translate(34 104)"><tspan x="-34.48" y="0">#F5F6FA</tspan></text></g><g transform="translate(147 3115.058)"><g class="h" transform="matrix(1, 0, 0, 1, -125, -6)"><circle class="c" cx="34" cy="34" r="34" transform="translate(125 6)"/></g><text class="b" transform="translate(34 104)"><tspan x="-34.44" y="0">#707070</tspan></text></g><g transform="translate(262 3115.058)"><g class="g" transform="matrix(1, 0, 0, 1, -240, -6)"><circle class="d" cx="34" cy="34" r="34" transform="translate(241 6)"/></g><text class="b" transform="translate(35 104)"><tspan x="-34.44" y="0">#223345</tspan></text></g><g transform="translate(380 3115.058)"><g class="f" transform="matrix(1, 0, 0, 1, -358, -6)"><circle class="e" cx="34" cy="34" r="34" transform="translate(359 6)"/></g><text class="b" transform="translate(35 104)"><tspan x="-36.47" y="0">#BF8AFC</tspan></text></g></g></svg>