<svg xmlns="http://www.w3.org/2000/svg" xmlns:xlink="http://www.w3.org/1999/xlink" width="318" height="116" viewBox="0 0 318 116"><defs><style>.a{fill:#f68080;}.b{fill:#3d4351;font-size:20px;font-family:Assistant-Regular, Assistant;}.c{fill:#83ce65;}.d{fill:#38c5cf;}.e{filter:url(#e);}.f{filter:url(#c);}.g{filter:url(#a);}</style><filter id="a" x="0" y="0" width="86" height="86" filterUnits="userSpaceOnUse"><feOffset dy="3" input="SourceAlpha"/><feGaussianBlur stdDeviation="3" result="b"/><feFlood flood-opacity="0.161"/><feComposite operator="in" in2="b"/><feComposite in="SourceGraphic"/></filter><filter id="c" x="116" y="0" width="86" height="86" filterUnits="userSpaceOnUse"><feOffset dy="3" input="SourceAlpha"/><feGaussianBlur stdDeviation="3" result="d"/><feFlood flood-opacity="0.161"/><feComposite operator="in" in2="d"/><feComposite in="SourceGraphic"/></filter><filter id="e" x="232" y="0" width="86" height="86" filterUnits="userSpaceOnUse"><feOffset dy="3" input="SourceAlpha"/><feGaussianBlur stdDeviation="3" result="f"/><feFlood flood-opacity="0.161"/><feComposite operator="in" in2="f"/><feComposite in="SourceGraphic"/></filter></defs><g transform="translate(-22 -3902.058)"><g transform="translate(31 3908.058)"><g class="g" transform="matrix(1, 0, 0, 1, -9, -6)"><circle class="a" cx="34" cy="34" r="34" transform="translate(9 6)"/></g><text class="b" transform="translate(34 104)"><tspan x="-34.42" y="0">#F68080</tspan></text></g><g transform="translate(147 3908.058)"><g class="f" transform="matrix(1, 0, 0, 1, -125, -6)"><circle class="c" cx="34" cy="34" r="34" transform="translate(125 6)"/></g><text class="b" transform="translate(34 104)"><tspan x="-35.53" y="0">#83CE65</tspan></text></g><g transform="translate(262 3908.058)"><g class="e" transform="matrix(1, 0, 0, 1, -240, -6)"><circle class="d" cx="34" cy="34" r="34" transform="translate(241 6)"/></g><text class="b" transform="translate(35 104)"><tspan x="-35.96" y="0">#38C5CF</tspan></text></g></g></svg>