<svg xmlns="http://www.w3.org/2000/svg" width="134" height="127.608" viewBox="0 0 134 127.608"><defs><style>.a,.b,.c{fill:#223345;}.b{font-size:18px;font-family:Rubik-Regular, Rubik;}.b,.c{letter-spacing:0.015em;}.c{font-size:12px;font-family:Rubik-Light, Rubik;font-weight:300;}</style></defs><g transform="translate(-77 -14.526)"><path class="a" d="M121.353,255.357a26.473,26.473,0,0,1-3.781.2,12.043,12.043,0,0,1-3.113-.869.307.307,0,0,1-.151-.165.773.773,0,0,1,.522-1.08.651.651,0,0,1,.26-.013,14.99,14.99,0,0,1,2.2.691c-1.248-1.225-1.448-2.894-.041-3.985a2.017,2.017,0,0,1,2.528-.112c1.424.958,1.089,2.275.779,3.8.007-.032.244-.1.28-.117a2.838,2.838,0,0,0,.273-.124,2.981,2.981,0,0,0,.867-.836q.5-.647.954-1.324.273-.405.529-.821c1.215-1.97,2.352-3.989,3.584-5.949A1.189,1.189,0,0,0,127,243a36.637,36.637,0,0,1-7.628-17.046c-.207-1.1-.206-2.239-.3-3.36a1.018,1.018,0,0,1,1.011-1.127c4.557-.077,9.122-.4,13.667-.191a16.813,16.813,0,0,1,12.759,7.076,1.861,1.861,0,0,0,2.536.783,38.112,38.112,0,0,1,17.314-2.067,25.769,25.769,0,0,1,14.207,6.373,35.572,35.572,0,0,0,3.889,3.064c2.3,1.491,3.843.788,4.515-1.864.663-2.619.212-5.235.1-7.862a59.03,59.03,0,0,1-.09-9.637c.6-4.889,5.091-8.833,9.98-9.3a1.6,1.6,0,0,1,1.186.789,5.192,5.192,0,0,1,.306,1.727c.3,2.383.3,2.389-1.989,2.961a3.782,3.782,0,0,0-3.016,3.54,56.223,56.223,0,0,0,.062,8.808c.349,3.833,1.105,7.628,1.567,11.453A15.639,15.639,0,0,1,186,253.791a7.791,7.791,0,0,1-4.765-.059c-.55-.185-1.109-.343-1.942-.6,1.549,2.674,3.965,3.481,6.641,4.169-.284.383-.4.693-.631.83-1.2.731-2.421,1.447-3.665,2.108a7.529,7.529,0,0,1-1.668.587c-2.879.738-3.889,2.947-4.406,5.549a2.012,2.012,0,0,0,.832,2.062c1.472,1.228,3.086,2.318,3.861,4.214a11.879,11.879,0,0,1,.852,6.014q-.472,3.865-1.16,7.7c-.394,2.188-1.253,2.811-3.47,2.935a12.792,12.792,0,0,1-6.923-1.611,2.9,2.9,0,0,1-1.738-3.266,17.6,17.6,0,0,0,.06-3.77,4.158,4.158,0,0,0-3.708-3.94c.371.452.67.793.943,1.154.779,1.029.621,1.849-.626,2.137a55.841,55.841,0,0,1-7.642,1.417,40.357,40.357,0,0,1-19.108-3.4c-.508-.21-.988-.486-1.478-.739a2.329,2.329,0,0,1-1.4-2.484,6.728,6.728,0,0,0-1.59-5.052c.062.552.081,1.112.193,1.653a8.8,8.8,0,0,1-1.017,6.275q-2.064,3.641-4.387,7.132c-1.069,1.608-1.865,1.746-3.465.711-2.113-1.368-4.158-2.842-6.229-4.275a1.249,1.249,0,0,1-.457-1.837c.466-.771.979-1.517,1.5-2.252a5.082,5.082,0,0,0,1.064-4.636c-1.691-5.585-.973-11.054.854-16.462a1.786,1.786,0,0,0,.09-.341A1.716,1.716,0,0,0,121.353,255.357Zm39.049-2.587c-5.969-6.185-7.868-12.767-2.987-20.147a8.093,8.093,0,0,0-4.6,5.849C151.7,243.6,155,249.944,160.4,252.771Zm12.164-12.594a2.253,2.253,0,0,1-.052-3.239c-1.332-.073-1.958.47-1.989,1.548S171.149,240.186,172.566,240.177Zm-54.383,12.3a.837.837,0,0,0,.433.352c.152.05.466.089.542-.1.167-.417-.222-1.224-.7-1.258a.429.429,0,0,0-.335.152A.747.747,0,0,0,118.183,252.476Z" transform="translate(-14.232 -193.311)"/><text class="b" transform="translate(77 116.941)"><tspan x="0" y="0">Flying Elephant</tspan></text><text class="c" transform="translate(118 139.134)"><tspan x="0" y="0">Toy Store</tspan></text></g></svg>