<svg xmlns="http://www.w3.org/2000/svg" xmlns:xlink="http://www.w3.org/1999/xlink" width="303" height="290" viewBox="0 0 303 290"><defs><style>.a,.e{fill:#fff;}.b,.c{fill:#707070;}.b{stroke:#707070;}.d,.f,.l,.m{fill:#223345;}.d{stroke:#fff;stroke-width:0.5px;}.e,.l{font-size:6px;}.e,.l,.m{font-family:Assistant-Regular, Assistant;}.e{letter-spacing:0.03em;}.f{font-size:9px;font-family:Assistant-SemiBold, Assistant;font-weight:600;}.g,.o{fill:#38c5cf;}.g{stroke:#38c5cf;}.g,.h,.i,.j{stroke-miterlimit:10;stroke-width:5px;}.h,.n{fill:#83ce65;}.h{stroke:#83ce65;}.i,.k{fill:#f68080;}.i{stroke:#f68080;}.j,.p{fill:#bf8afc;}.j{stroke:#bf8afc;}.m{font-size:5px;}.q{filter:url(#a);}</style><filter id="a" x="0" y="0" width="303" height="290" filterUnits="userSpaceOnUse"><feOffset dx="5" dy="7" input="SourceAlpha"/><feGaussianBlur stdDeviation="20.5" result="b"/><feFlood flood-opacity="0.161"/><feComposite operator="in" in2="b"/><feComposite in="SourceGraphic"/></filter></defs><g transform="translate(56.577 54.416)"><g class="q" transform="matrix(1, 0, 0, 1, -56.58, -54.42)"><rect class="a" width="180" height="167" rx="10" transform="translate(56.5 54.5)"/></g><g transform="translate(162.077 9.073)"><path class="b" d="M9.922,5.44,1.761,5.5l.209,6.254,8.041-.328Z" transform="translate(-1.402 -3.959)"/><path class="c" d="M9.7,3.866H8.043V2.813h-.6V3.866H3.832V2.813h-.6V3.866H1.576a.452.452,0,0,0-.451.451v6.316a.452.452,0,0,0,.451.451H9.7a.452.452,0,0,0,.451-.451V4.317A.452.452,0,0,0,9.7,3.866Zm-.151,6.617H1.727V4.467h1.5v.752h.6V4.467H7.441v.752h.6V4.467h1.5Z" transform="translate(-1.125 -2.813)"/><path class="a" d="M7.875,15.75h.6v.6h-.6Z" transform="translate(-6.07 -12.291)"/><path class="a" d="M14.063,15.75h.6v.6h-.6Z" transform="translate(-10.604 -12.291)"/><path class="a" d="M19.688,15.75h.6v.6h-.6Z" transform="translate(-14.725 -12.291)"/><path class="a" d="M25.875,15.75h.6v.6h-.6Z" transform="translate(-19.258 -12.291)"/><path class="a" d="M7.875,20.813h.6v.6h-.6Z" transform="translate(-6.07 -16.001)"/><path class="a" d="M14.063,20.813h.6v.6h-.6Z" transform="translate(-10.604 -16.001)"/><path class="a" d="M19.688,20.813h.6v.6h-.6Z" transform="translate(-14.725 -16.001)"/><path class="a" d="M25.875,20.813h.6v.6h-.6Z" transform="translate(-19.258 -16.001)"/><path class="a" d="M7.875,25.875h.6v.6h-.6Z" transform="translate(-6.07 -19.71)"/><path class="a" d="M14.063,25.875h.6v.6h-.6Z" transform="translate(-10.604 -19.71)"/><path class="a" d="M19.688,25.875h.6v.6h-.6Z" transform="translate(-14.725 -19.71)"/><path class="a" d="M25.875,25.875h.6v.6h-.6Z" transform="translate(-19.258 -19.71)"/></g><g transform="translate(17.035 15.273)"><g transform="translate(108.949 25.757)"><g transform="translate(0)"><path class="d" d="M-.4,3A1.254,1.254,0,0,0-1.651,4.253v7.519c0,.691.022.287,0,3.346L.941,13.2H15.458a1.254,1.254,0,0,0,1.253-1.253V4.427a1.254,1.254,0,0,0-1.253-1.253Z" transform="translate(1.651 -3)"/></g><text class="e" transform="translate(3.938 7.054)"><tspan x="0" y="0">500</tspan></text></g><text class="f" transform="translate(-0.112 8.811)"><tspan x="0" y="0">Top Selling Products</tspan></text><g transform="translate(34.509 25.757)"><path class="g" d="M11.185,36.889a38.333,38.333,0,0,1-6.073-7.906h0A38.072,38.072,0,0,1,0,9.886,38.232,38.232,0,0,1,1.295,0L6.653,1.436A32.674,32.674,0,0,0,21.865,38.158l-2.774,4.8A38.325,38.325,0,0,1,11.185,36.889Z" transform="translate(0 28.059)"/><path class="h" d="M19.1,24.192a32.693,32.693,0,0,0,8.45-1.106,32.451,32.451,0,0,0,7.873-3.263l2.774,4.8a37.95,37.95,0,0,1-9.211,3.817l-1.436-5.358,1.436,5.358A38.228,38.228,0,0,1,19.1,29.738ZM9.211,28.444A37.945,37.945,0,0,1,0,24.626l2.774-4.8a32.451,32.451,0,0,0,7.873,3.263L9.211,28.444l1.436-5.358A32.685,32.685,0,0,0,19.1,24.192v5.547A38.227,38.227,0,0,1,9.211,28.444Zm26.208-8.621a32.762,32.762,0,0,0,6.758-5.191L46.1,18.553a38.313,38.313,0,0,1-7.906,6.073Zm6.758-5.191a32.766,32.766,0,0,0,5.191-6.758l4.8,2.773A38.32,38.32,0,0,1,46.1,18.553Zm5.191-6.758A32.426,32.426,0,0,0,50.631,0L55.99,1.436a37.949,37.949,0,0,1-3.817,9.211Z" transform="translate(18.848 46.394)"/><path class="i" d="M31.535,46.638a32.687,32.687,0,0,0,1.107-8.45h5.547a38.224,38.224,0,0,1-1.3,9.885Zm1.107-8.45a32.686,32.686,0,0,0-1.107-8.45L36.893,28.3a38.225,38.225,0,0,1,1.3,9.886ZM28.272,21.865l4.8-2.774A37.958,37.958,0,0,1,36.893,28.3l-5.358,1.436A32.423,32.423,0,0,0,28.272,21.865Zm-5.191-6.758a32.745,32.745,0,0,0-6.758-5.191A32.44,32.44,0,0,0,8.45,6.653,32.664,32.664,0,0,0,0,5.547V0A38.225,38.225,0,0,1,9.886,1.3,37.935,37.935,0,0,1,19.1,5.112l-2.773,4.8,2.774-4.8A38.338,38.338,0,0,1,27,11.185h0a38.37,38.37,0,0,1,6.074,7.906l-4.8,2.774A32.768,32.768,0,0,0,23.081,15.107Z" transform="translate(37.944 0)"/><path class="j" d="M0,28.3a37.953,37.953,0,0,1,3.817-9.211l4.8,2.774a32.444,32.444,0,0,0-3.263,7.873Zm3.817-9.211A38.331,38.331,0,0,1,17.8,5.112,37.938,37.938,0,0,1,27.008,1.3l1.436,5.358A32.449,32.449,0,0,0,20.57,9.916,32.772,32.772,0,0,0,8.621,21.865ZM27.008,1.3A38.225,38.225,0,0,1,36.893,0V5.547a32.664,32.664,0,0,0-8.45,1.107Z" transform="translate(1.295 0)"/><path class="i" d="M31.535,46.638a32.687,32.687,0,0,0,1.107-8.45h5.547a38.224,38.224,0,0,1-1.3,9.885Zm1.107-8.45a32.686,32.686,0,0,0-1.107-8.45L36.893,28.3a38.225,38.225,0,0,1,1.3,9.886ZM28.272,21.865l4.8-2.774A37.958,37.958,0,0,1,36.893,28.3l-5.358,1.436A32.423,32.423,0,0,0,28.272,21.865Zm-5.191-6.758a32.745,32.745,0,0,0-6.758-5.191A32.44,32.44,0,0,0,8.45,6.653,32.664,32.664,0,0,0,0,5.547V0A38.225,38.225,0,0,1,9.886,1.3,37.935,37.935,0,0,1,19.1,5.112l-2.773,4.8,2.774-4.8A38.338,38.338,0,0,1,27,11.185h0a38.37,38.37,0,0,1,6.074,7.906l-4.8,2.774A32.768,32.768,0,0,0,23.081,15.107Z" transform="translate(37.944 0)"/></g><g transform="translate(0 117.68)"><path class="k" d="M4.927,0A4.525,4.525,0,0,1,9.585,4.748,5.173,5.173,0,0,1,4.659,9.763,4.525,4.525,0,0,1,0,5.017,5.173,5.173,0,0,1,4.927,0Z" transform="translate(2.928 5.605) rotate(-35.783)"/><text class="l" transform="translate(-0.112 22.131)"><tspan x="0" y="0">Blocks</tspan></text></g><g transform="translate(32.895 118.808)"><text class="m" transform="translate(-0.007 20.003)"><tspan x="0" y="0">Bath Toys</tspan></text><path class="n" d="M5.026,0a4.691,4.691,0,0,1,4.9,4.646A5,5,0,0,1,4.9,9.42,4.691,4.691,0,0,1,0,4.773,5,5,0,0,1,5.026,0Z" transform="matrix(0.23, -0.973, 0.973, 0.23, 7.253, 9.66)"/></g><g transform="translate(71.664 117.68)"><path class="o" d="M4.927,0A4.525,4.525,0,0,1,9.585,4.748,5.173,5.173,0,0,1,4.659,9.763,4.525,4.525,0,0,1,0,5.017,5.173,5.173,0,0,1,4.927,0Z" transform="translate(11.344 5.605) rotate(-35.783)"/><text class="l" transform="translate(0.224 22.131)"><tspan x="0" y="0">Musical Toys</tspan></text></g><g transform="translate(121.007 118.808)"><path class="p" d="M5.026,0a4.691,4.691,0,0,1,4.9,4.646A5,5,0,0,1,4.9,9.42,4.691,4.691,0,0,1,0,4.773,5,5,0,0,1,5.026,0Z" transform="matrix(0.23, -0.973, 0.973, 0.23, 6.553, 9.66)"/><text class="m" transform="translate(-0.119 20.003)"><tspan x="0" y="0">Soft Toys</tspan></text></g></g></g></svg>