<svg xmlns="http://www.w3.org/2000/svg" xmlns:xlink="http://www.w3.org/1999/xlink" width="434" height="116" viewBox="0 0 434 116"><defs><style>.a{fill:#707070;}.b{fill:#3d4351;font-size:20px;font-family:Assistant-Regular, Assistant;}.c{fill:#f5fbff;}.d{fill:#dcf3f0;}.e{filter:url(#e);}.f{filter:url(#c);}.g{filter:url(#a);}</style><filter id="a" x="0" y="0" width="86" height="86" filterUnits="userSpaceOnUse"><feOffset dy="3" input="SourceAlpha"/><feGaussianBlur stdDeviation="3" result="b"/><feFlood flood-opacity="0.161"/><feComposite operator="in" in2="b"/><feComposite in="SourceGraphic"/></filter><filter id="c" x="174" y="0" width="86" height="86" filterUnits="userSpaceOnUse"><feOffset dy="3" input="SourceAlpha"/><feGaussianBlur stdDeviation="3" result="d"/><feFlood flood-opacity="0.161"/><feComposite operator="in" in2="d"/><feComposite in="SourceGraphic"/></filter><filter id="e" x="348" y="0" width="86" height="86" filterUnits="userSpaceOnUse"><feOffset dy="3" input="SourceAlpha"/><feGaussianBlur stdDeviation="3" result="f"/><feFlood flood-opacity="0.161"/><feComposite operator="in" in2="f"/><feComposite in="SourceGraphic"/></filter></defs><g transform="translate(-22 -3707.058)"><g transform="translate(31 3713.058)"><g class="g" transform="matrix(1, 0, 0, 1, -9, -6)"><circle class="a" cx="34" cy="34" r="34" transform="translate(9 6)"/></g><text class="b" transform="translate(34 104)"><tspan x="-34.44" y="0">#707070</tspan></text></g><g transform="translate(202 3713.058)"><g class="f" transform="matrix(1, 0, 0, 1, -180, -6)"><path class="c" d="M34,0A34,34,0,1,1,0,34,34,34,0,0,1,34,0Z" transform="translate(183 6)"/></g><text class="b" transform="translate(37 104)"><tspan x="-35.29" y="0">#F5FBFF</tspan></text></g><g transform="translate(378 3713.058)"><g class="e" transform="matrix(1, 0, 0, 1, -356, -6)"><path class="d" d="M34,0A34,34,0,1,1,0,34,34,34,0,0,1,34,0Z" transform="translate(357 6)"/></g><text class="b" transform="translate(35 104)"><tspan x="-36.38" y="0">#DCF3F0</tspan></text></g></g></svg>