<svg xmlns="http://www.w3.org/2000/svg" xmlns:xlink="http://www.w3.org/1999/xlink" width="420" height="257.502" viewBox="0 0 420 257.502"><defs><style>.a{fill:#009c86;opacity:0.11;}.b{fill:#3c8f7c;}.c{fill:#50bfa5;}.d{fill:#96d9c9;}.e{fill:#215e4b;}.f{fill:#327f6b;}.g{clip-path:url(#a);}.h{fill:#8ddcfc;}.i{fill:#90c4c4;}.j{fill:#004c80;}.k{fill:#42a3e8;}.l{fill:#280a26;}.m{fill:#f49a38;}.n{fill:#f7a491;}.o{fill:#f47458;}.p{fill:#f7bf38;}.q{fill:#fff;}</style><clipPath id="a"><path class="a" d="M556.682,2926.465a54.148,54.148,0,0,0-3.134-40.424c-7.977-15.9-24.85-29.9-60.529-16.65-50.342,18.7-84.267,77.052-142.53,75.047-19.378-.667-37.918-8.922-57.3-9.373-19.717-.459-39.1,7.388-54.574,19.616-24.614,19.452-44.368,52.331-49.712,83.356-3.925,22.783,5.519,40.206,25.053,51.851,37.289,22.228,84.08,21.373,126.591,12.578,23.779-4.919,47.185-12.108,71.365-14.335,25.939-2.389,47.979,3.122,70.75,14.98,22.413,11.671,41.779,22.568,67.933,17.01,21.035-4.469,43.01-14.216,52.5-33.514,5.967-12.135,6.057-26.526,2.739-39.636-6.529-25.8-22.349-44-39.189-63.427C551.6,2966.189,549.867,2948.279,556.682,2926.465Z" transform="translate(-188.027 -2864.114)"/></clipPath></defs><g transform="translate(-5842 -878.971)"><g transform="translate(5917.305 1025.466)"><g transform="translate(55.743)"><g transform="translate(0.035 4.906)"><path class="b" d="M1049.009,3891.441c4.52-7.062,5.363-15.589,5.275-21.5a55.219,55.219,0,0,0-1.292-11.268l.327-.115a55.6,55.6,0,0,1,1.3,11.345c.09,5.968-.763,14.583-5.339,21.732Z" transform="translate(-1049.009 -3858.56)"/></g><g transform="translate(2.888)"><path class="b" d="M1067.765,3830.185a4.821,4.821,0,0,0,1.679,3.417,5.594,5.594,0,0,0,1.123-3.848,4.821,4.821,0,0,0-1.679-3.417A5.592,5.592,0,0,0,1067.765,3830.185Z" transform="translate(-1067.748 -3826.338)"/></g><g transform="translate(4.026 4.106)"><ellipse class="b" cx="3.683" cy="1.398" rx="3.683" ry="1.398" transform="translate(0 6.318) rotate(-59.066)"/></g><g transform="translate(5.382 10.347)"><path class="b" d="M1086.439,3895.1a5.449,5.449,0,0,0-2.308,3.231,4.468,4.468,0,0,0,3.649-.646,5.448,5.448,0,0,0,2.308-3.231A4.471,4.471,0,0,0,1086.439,3895.1Z" transform="translate(-1084.131 -3894.3)"/></g><g transform="translate(5.47 16.114)"><path class="b" d="M1086.4,3932.7a3.973,3.973,0,0,0-1.686,2.832,3.174,3.174,0,0,0,3.03-.249,3.976,3.976,0,0,0,1.686-2.832A3.173,3.173,0,0,0,1086.4,3932.7Z" transform="translate(-1084.71 -3932.182)"/></g><g transform="translate(0 9.662)"><path class="b" d="M1052.043,3890.267a3.843,3.843,0,0,0-3.261-.189,4.1,4.1,0,0,0,2.041,2.646,3.842,3.842,0,0,0,3.261.189A4.1,4.1,0,0,0,1052.043,3890.267Z" transform="translate(-1048.782 -3889.802)"/></g><g transform="translate(0.117 13.455)"><path class="b" d="M1052.814,3915.181a3.842,3.842,0,0,0-3.261-.189,4.1,4.1,0,0,0,2.041,2.646,3.842,3.842,0,0,0,3.261.189A4.1,4.1,0,0,0,1052.814,3915.181Z" transform="translate(-1049.553 -3914.716)"/></g><g transform="translate(5.168 22.62)"><path class="b" d="M1084.034,3974.96a2.063,2.063,0,0,0-1.306,1,1.7,1.7,0,0,0,1.5.346,2.061,2.061,0,0,0,1.306-1A1.7,1.7,0,0,0,1084.034,3974.96Z" transform="translate(-1082.728 -3974.912)"/></g></g><g transform="translate(57.641 9.131)"><g transform="translate(0 4.996)"><path class="b" d="M1061.249,3947.779c10.344-2.474,18.233-10.124,23.029-16.107a68.692,68.692,0,0,0,8.024-12.542l.421.216a69.174,69.174,0,0,1-8.078,12.631c-4.843,6.042-12.813,13.771-23.285,16.275Z" transform="translate(-1061.249 -3919.13)"/></g><g transform="translate(29.661)"><path class="b" d="M1257.323,3889.016a6.837,6.837,0,0,0-1.149,5.1,6.276,6.276,0,0,0,4.3-2.7,6.836,6.836,0,0,0,1.15-5.1A6.274,6.274,0,0,0,1257.323,3889.016Z" transform="translate(-1256.07 -3886.315)"/></g><g transform="translate(27.186 8.912)"><path class="b" d="M1243.821,3945.07a6.337,6.337,0,0,0-4,3.151,6.268,6.268,0,0,0,5.017.759,6.337,6.337,0,0,0,4-3.15A6.268,6.268,0,0,0,1243.821,3945.07Z" transform="translate(-1239.817 -3944.852)"/></g><g transform="translate(24.684 14.636)"><path class="b" d="M1228.352,3982.623a6.184,6.184,0,0,0-4.972.89,6.589,6.589,0,0,0,4.173,3.043,6.183,6.183,0,0,0,4.973-.889A6.592,6.592,0,0,0,1228.352,3982.623Z" transform="translate(-1223.38 -3982.446)"/></g><g transform="translate(20.563 19.803)"><path class="b" d="M1201.284,4016.562a6.183,6.183,0,0,0-4.972.89,6.59,6.59,0,0,0,4.173,3.044,6.185,6.185,0,0,0,4.973-.889A6.591,6.591,0,0,0,1201.284,4016.562Z" transform="translate(-1196.312 -4016.385)"/></g><g transform="translate(23.35 6.786)"><path class="b" d="M1218.038,3935.49a6.708,6.708,0,0,0-1.473-4.6,5.862,5.862,0,0,0-1.934,4.19,6.707,6.707,0,0,0,1.473,4.605A5.864,5.864,0,0,0,1218.038,3935.49Z" transform="translate(-1214.621 -3930.885)"/></g><g transform="translate(19.053 12.104)"><path class="b" d="M1189.812,3970.449a6.726,6.726,0,0,0-1.4-4.632,5.843,5.843,0,0,0-2,4.153,6.726,6.726,0,0,0,1.4,4.632A5.842,5.842,0,0,0,1189.812,3970.449Z" transform="translate(-1186.395 -3965.817)"/></g><g transform="translate(16.788 24.651)"><path class="b" d="M1173.646,4048.654a2.539,2.539,0,0,0-2.13-.321,2.756,2.756,0,0,0,1.208,1.859,2.54,2.54,0,0,0,2.13.321A2.756,2.756,0,0,0,1173.646,4048.654Z" transform="translate(-1171.517 -4048.227)"/></g></g><g transform="translate(10.8 7.873)"><g transform="translate(3.153 5.867)"><path class="b" d="M790.6,3960.232l-.447-.03c.644-11.831-3.7-22.963-7.456-30.219a78.654,78.654,0,0,0-8.406-13.061l.328-.337a79.178,79.178,0,0,1,8.461,13.141C786.87,3937.042,791.25,3948.274,790.6,3960.232Z" transform="translate(-774.291 -3916.585)"/></g><path class="b" d="M754.795,3883.576a6.2,6.2,0,0,0,3.976,3.081,8.643,8.643,0,0,0-1.134-5.526,6.2,6.2,0,0,0-3.976-3.081A8.643,8.643,0,0,0,754.795,3883.576Z" transform="translate(-753.584 -3878.05)"/><g transform="translate(6.53 2.52)"><ellipse class="b" cx="5.202" cy="1.776" rx="5.202" ry="1.776" transform="matrix(0.026, -1, 1, 0.026, 0, 10.401)"/></g><g transform="translate(10.234 7.993)"><path class="b" d="M821.6,3933.844a8.469,8.469,0,0,0-.56,5.573,5.8,5.8,0,0,0,3.647-3.291,8.468,8.468,0,0,0,.56-5.573A5.8,5.8,0,0,0,821.6,3933.844Z" transform="translate(-820.802 -3930.553)"/></g><g transform="translate(13.581 19.12)"><path class="b" d="M843.231,4004.891a3.538,3.538,0,0,0-.393,2.315,2.386,2.386,0,0,0,1.622-1.252,3.539,3.539,0,0,0,.393-2.315A2.385,2.385,0,0,0,843.231,4004.891Z" transform="translate(-842.786 -4003.639)"/></g><g transform="translate(14.873 22.383)"><path class="b" d="M851.718,4026.32a3.539,3.539,0,0,0-.393,2.315,2.384,2.384,0,0,0,1.621-1.251,3.537,3.537,0,0,0,.393-2.315A2.384,2.384,0,0,0,851.718,4026.32Z" transform="translate(-851.273 -4025.068)"/></g><g transform="translate(1.758 13.051)"><path class="b" d="M768.865,3963.775a4.689,4.689,0,0,0-3.733,1.992,5,5,0,0,0,3.9,1.88,4.689,4.689,0,0,0,3.733-1.992A5,5,0,0,0,768.865,3963.775Z" transform="translate(-765.132 -3963.775)"/></g><g transform="translate(4.235 17.663)"><path class="b" d="M785.132,3994.069a4.689,4.689,0,0,0-3.733,1.992,5,5,0,0,0,3.9,1.88,4.688,4.688,0,0,0,3.733-1.992A5,5,0,0,0,785.132,3994.069Z" transform="translate(-781.399 -3994.069)"/></g><g transform="translate(9.637 23.948)"><path class="b" d="M819.311,4035.351a3.052,3.052,0,0,0-2.43,1.3,3.255,3.255,0,0,0,2.538,1.224,3.054,3.054,0,0,0,2.43-1.3A3.252,3.252,0,0,0,819.311,4035.351Z" transform="translate(-816.881 -4035.35)"/></g></g><path class="b" d="M788.624,3989.137c0-1.969-11.893.355-12.883-2.329s10.186-2.838,10.186-6.467-5.7-1.084-9.035-1.084,6.593-1.554,6.593-2.839-3.485-.611-3.485-1.975,18.3-2.393,16.159-5.732-11.981.973-14.682-.755,14.433-3.611,14.857-6.18-12.625,2.2-14.473.354,20.634-8.488,19.692-13.369-17.04,6.251-21.065,5.052,20.294-18.332,14.643-25.007-16.441,22.1-20.123,21.068,4.611-18.181.85-21.164-14.557,24.149-15.239,29.721-2.052-11.985-7.96-14.039-.171,10.876-1.2,14.815-5.822-10.1-12.288-9.077,11.688,13.872,9.89,17.64-15.816-12.578-20.209-8.186,16.884,16.583,15.721,19.919-13.929-2.381-17.6,1.294,13.713,6.011,16.019,6.011,11.118,2.9,2.512,2.329S788.624,3991.105,788.624,3989.137Z" transform="translate(-719.792 -3912.351)"/><g transform="translate(0 56.566)"><path class="c" d="M717.58,4220.371s-14.322.768-18.492-1.857-.879-4.668-.879-4.668-13.244-.289-13.211-3.426,3.244-2.957,3.244-2.957-6.685-4.543-5.438-7.375c1.916-4.352,12.8,3.225,12.8,3.225s-3.569-4.239-.685-5.229C702.84,4195.364,717.58,4220.371,717.58,4220.371Z" transform="translate(-682.649 -4197.876)"/><path class="d" d="M682.8,4212.4c-1.247,2.832,5.438,7.375,5.438,7.375s-4.825-.064-4.042,2.988,12.91,4.065,12.91,4.065-4.235.828-.065,3.454,20.534,2.4,20.534,2.4Z" transform="translate(-682.649 -4210.188)"/></g></g><path class="e" d="M2261.722,3733.35h1.022a60.091,60.091,0,0,1,2.176-11.213c4.454-15.031,2.505-16.977,10.021-26.373s8.073-28.882,8.073-28.882,3.618-22.13,0-31.873-3.9-19.485-12.665-29.784c0,0-1.67,13.779-3.758,20.042s-4.07,12.248-2.522,27.279,2.509,16.284,2.864,20.181-.2,20.324.633,23.037-4.871,21.5-5.289,29.574C2262.149,3727.764,2261.924,3730.529,2261.722,3733.35Z" transform="translate(3895.991 -2613.423)"/><path class="b" d="M2275.04,4115.418a16.284,16.284,0,0,1,8.472-8.665c11.691-5.219,19.578-5.1,25.006-17.629s5.428-29.646,7.307-33.195c0,0-5.011-.835-10.021,8.142s-8.409,15.658-11.3,20.877-7.069,3.758-10.618,7.724c-2.975,3.324-5.721,11.058-6.765,14.983a15.435,15.435,0,0,1-1.482,3.65c-.591,1.044-1.287,2.313-1.705,3.219a5.067,5.067,0,0,0-.276.894Z" transform="translate(3885.874 -2995.491)"/><path class="e" d="M2063.982,3594.156c-.835,10.717,5.985,9.882,6.263,16.7s9.186,18.372,13.313,26.583c2.146,4.271,2.939,10.8,3.205,16.084h3.316c-1.282-13.373-6.708-22.682-9.952-30.141-4.175-9.6-4.8-13.988-1.253-21.5s-1.67-26.931,3.383-35.587,2.463-22.242,1.3-27.461.118-8.768,1.162-14.271-1.162-13.5-1.162-13.5c-.188,6.82-5.379,16.145-9.137,22.129s-10.856,22.269-10.021,29.646.418,7.933.418,7.933C2062.173,3580.656,2064.817,3583.439,2063.982,3594.156Z" transform="translate(4063.943 -2533.599)"/><path class="b" d="M2017.312,4106.709c.427,1.279,1.793,4.546,3.044,8.708h2.033c-.925-5.3-2.522-11.447-5.217-14.972-5.428-7.1-16.284-10.16-17.536-15.31s.139-20.6-7.794-29.228c0,0,1.113,9.607,0,12.18s-10.578,14.542-5.01,24.563,18.093,8.768,21.99,11S2016.616,4104.621,2017.312,4106.709Z" transform="translate(4130.507 -2995.491)"/><path class="b" d="M2134.7,3853.522c-.14,10.3,7.933,14.2,7.794,19.9s1.67,11.83,3.2,16.423c.969,2.907.433,11,.261,18.6h2.24c.564-5.583,1.182-13.637.979-17.207-.279-4.871,1.948-8.768,2.227-17.258s2.088-16.145-1.67-26.862-3.062-23.521-18.789-35.352c0,0-2.784,12.526-.7,19.346S2134.838,3843.223,2134.7,3853.522Z" transform="translate(4008.11 -2788.52)"/><path class="f" d="M2134.7,3853.522c-.139,10.3,7.934,14.2,7.794,19.9s1.67,11.83,3.2,16.423c.969,2.907.433,11,.261,18.6h.93c.126-1.587.247-2.584.247-2.584l.464-19.207s-.928-15.032-2.6-27.279-14.057-47.609-14.057-47.609-2.784,12.526-.7,19.346S2134.838,3843.223,2134.7,3853.522Z" transform="translate(4008.11 -2788.52)"/><path class="a" d="M556.682,2926.465a54.148,54.148,0,0,0-3.134-40.424c-7.977-15.9-24.85-29.9-60.529-16.65-50.342,18.7-84.267,77.052-142.53,75.047-19.378-.667-37.918-8.922-57.3-9.373-19.717-.459-39.1,7.388-54.574,19.616-24.614,19.452-44.368,52.331-49.712,83.356-3.925,22.783,5.519,40.206,25.053,51.851,37.289,22.228,84.08,21.373,126.591,12.578,23.779-4.919,47.185-12.108,71.365-14.335,25.939-2.389,47.979,3.122,70.75,14.98,22.413,11.671,41.779,22.568,67.933,17.01,21.035-4.469,43.01-14.216,52.5-33.514,5.967-12.135,6.057-26.526,2.739-39.636-6.529-25.8-22.349-44-39.189-63.427C551.6,2966.189,549.867,2948.279,556.682,2926.465Z" transform="translate(5653.973 -1985.143)"/><g class="g" transform="translate(5842 878.971)"><g transform="translate(295.769 -0.71)"><path class="f" d="M2144.719,2862.326c-.156.216-.389.517-.731.93l-.014.018c.014.049,4.341,15.722.933,16.913-3.125,1.091-3.389-10.4-2.122-15.216a23.685,23.685,0,0,0-1.827,3.369,29.116,29.116,0,0,0-1.876,7.487c.635,1.04,4.517,7.58,2.573,8.926-1.577,1.092-2.61-3.207-2.895-6.048-.228,2.567-.327,5.281-.338,7.976,2.1.514,8.442,2.336,8.562,5.59.134,3.637-5.318,2.564-8.56-4.181.018,2.679.116,5.308.252,7.721,1.51,1.362,7.719,7.218,6.718,10.6-1.013,3.427-4.908-.5-6.551-7.984.305,4.286.692,7.541.864,8.568.056.339.12.774.187,1.288h0c.025.188.05.387.076.594h0s9.65,13,6.887,16c-1.959,2.123-4.892-6.564-6.433-11.8.534,5.559,1,12.81.555,15.046l-.035-.007c.341,5.013.575,14.127-2.187,14.588-3.82.637,0-9.55,0-9.55s-4.662,1.861-5.093,0c-.723-3.115,5.807-7.5,6.861-8.185-.012-2.769-.264-6.692-.578-10.256-.352,7.641-2.26,9.913-3,10.164-.921.312-2.817-1.558-2.167-7.464a13.889,13.889,0,0,1,4.544-8.651c-.084-.652-.165-1.214-.239-1.659-.165-.986-.525-4.008-.823-8.027-.747,6.282-2.513,11.423-4.106,8.239-1.553-3.1,2.5-9.041,3.925-10.969-.165-2.8-.281-5.917-.281-9.081-1.185,3.106-6.381,8.945-7.029,5.6-.637-3.286,5.812-6.706,7.041-7.324.037-2.708.168-5.414.433-7.953-1.442,2.561-5.842,7.805-6.364,4.974-.6-3.233,6.779-8.195,6.779-8.195l.011.012a27.039,27.039,0,0,1,1.71-6.295,24.081,24.081,0,0,1,1.725-3.225c-2.726,1.849-6.9,3.494-6.73,1.564.182-2.094,6.6-3.788,8.645-4.276.069-.1.116-.143.146-.142.733-.9,1.505-1.753,2.292-2.554h.894A36.368,36.368,0,0,0,2144.719,2862.326Z" transform="translate(-2130.72 -2859.453)"/><path class="f" d="M2251.757,2867.779c-2.036,1.147-1.291-4.58-.613-8.326h1.989C2253.5,2862.584,2253.587,2866.747,2251.757,2867.779Z" transform="translate(-2232.207 -2859.453)"/></g><g transform="translate(308.775 -0.71)"><path class="f" d="M2235.25,2867.457c-2.7-.379-.274-4.461,3.538-8h3.992C2240.767,2863.139,2237.707,2867.8,2235.25,2867.457Z" transform="translate(-2231.369 -2859.453)"/><path class="f" d="M2312.662,2859.453h4.092c2.1,2.617,3.683,5.839,2.257,8.729C2317,2872.262,2314.283,2864.937,2312.662,2859.453Z" transform="translate(-2297.969 -2859.453)"/><path class="b" d="M2228.343,2859.453h.678c-.174,1.211-.362,2.554-.56,4.009,1.638,3.231,10,20.283,6.016,23.941-4.408,4.045-5.978-16.665-5.978-16.665l-.232-5.833c-.667,5.031-1.4,11.166-1.986,17.5,1.516,1.249,7.786,6.752,5.176,10.374-2.427,3.368-4.572-5.946-5.264-9.4-.372,4.189-.671,8.445-.832,12.507,1.6.744,8.357,4.1,6.5,7.037-1.795,2.841-5.523-3.464-6.563-5.346-.075,2.49-.093,4.89-.039,7.139,1.749.822,9.578,4.653,7.644,6.479-2.174,2.053-6.642-3.443-6.642-3.443s3.5,14.07-.306,12.561-1.264-13.4-1.385-13.706l.065-.383c-.074-1.849-.094-3.815-.068-5.863-.707,1.811-2.072,4.828-2.9,3.529-.968-1.528,1.987-4.646,2.935-5.584.072-2.791.218-5.7.417-8.643-1.375,3.472-4.248,8.489-5.706,6.136-1.636-2.639,4.513-9.463,6.088-11.141.367-4.323.817-8.6,1.282-12.562-1.934,5.059-8.233,15.763-10.269,12.11-2.119-3.8,8.8-15.721,11.006-18.066C2227.754,2863.64,2228.066,2861.38,2228.343,2859.453Z" transform="translate(-2216.152 -2859.453)"/></g><path class="b" d="M2382.627,2865.178c-1.651,4.4-4.914,11.832-8.117,11.746-4.32-.117,1.847-9.753,8.207-14.245.012-.312.023-.6.035-.875a24.093,24.093,0,0,1,3.063.747c3.625,2.524,9.766,7.8,7.881,13.03-2.222,6.158-8.094-8.5-9.85-13.161-.086,2.183-.2,5.4-.282,9.273,2.591,3.973,13.4,21.155,9.517,25.615-4.4,5.054-8.739-17.794-8.739-17.794l-.827-5.4c-.1,5.5-.136,12.055.005,18.778,2.118,1.4,9.249,6.55,6.875,10.773-2.165,3.85-5.48-5.07-6.838-9.192.114,4.533.312,9.114.631,13.476,2.163.741,9.574,3.562,7.931,6.952-1.568,3.235-6.145-2.6-7.766-4.837.226,2.7.5,5.3.837,7.725,2.372.816,10.993,3.976,9.124,6.186-2.161,2.556-7.821-3-7.821-3s5.659,15.217,1.233,14.015c-3.9-1.06-3.323-11.71-3.249-14.444-.365-2.207-.672-4.59-.929-7.094-.595,2.111-1.647,5.044-2.646,3.8-1.2-1.5,1.334-5.019,2.4-6.374-.263-3-.462-6.14-.611-9.321-1.168,4-3.593,9.312-5.424,6.987-2.076-2.636,3.431-10.522,5.2-12.923-.132-4.691-.172-9.353-.157-13.7-1.748,6.11-7.1,17.752-9.724,14.083-2.76-3.863,7.272-17.834,9.8-21.231C2382.449,2871.04,2382.541,2867.754,2382.627,2865.178Z" transform="translate(-2039.595 -2862.156)"/><path class="f" d="M2458.629,2939.955c-.638-3.286,5.812-6.705,7.041-7.324.037-2.708.168-5.414.433-7.954-1.442,2.561-5.842,7.805-6.364,4.974-.6-3.232,6.779-8.195,6.779-8.195l.011.012a27.037,27.037,0,0,1,1.711-6.3,24,24,0,0,1,1.66-3.118q.228.237.45.479a23.32,23.32,0,0,0-1.528,2.895,29.119,29.119,0,0,0-1.876,7.487c.635,1.041,4.517,7.58,2.573,8.926-1.577,1.092-2.61-3.207-2.895-6.048-.228,2.567-.327,5.281-.338,7.975,2.1.515,8.442,2.336,8.562,5.59.134,3.636-5.318,2.564-8.56-4.181.018,2.679.116,5.308.252,7.721,1.51,1.362,7.719,7.218,6.718,10.6-1.014,3.427-4.908-.5-6.551-7.984.305,4.286.693,7.541.864,8.568.056.338.119.774.187,1.287h0c.024.188.05.387.075.595h0s9.65,13,6.887,16c-1.959,2.122-4.892-6.564-6.433-11.8.534,5.559,1,12.81.555,15.047l-.035-.007c.341,5.013.575,14.127-2.187,14.587-3.82.637,0-9.55,0-9.55s-4.662,1.86-5.094,0c-.722-3.115,5.807-7.5,6.861-8.185-.012-2.769-.264-6.693-.579-10.256-.351,7.641-2.26,9.912-3,10.164-.921.312-2.818-1.558-2.167-7.464a13.889,13.889,0,0,1,4.544-8.652c-.084-.652-.165-1.214-.239-1.659-.165-.986-.526-4.008-.823-8.027-.747,6.283-2.513,11.423-4.106,8.239-1.553-3.1,2.5-9.041,3.925-10.969-.165-2.8-.281-5.917-.281-9.081C2464.474,2937.457,2459.278,2943.3,2458.629,2939.955Z" transform="translate(-2112.9 -2904.756)"/><path class="f" d="M2534.153,2928.883c-3,1.046-3.362-9.462-2.272-14.579a31.58,31.58,0,0,1,2.673,3.39C2535.467,2922.319,2536.184,2928.174,2534.153,2928.883Z" transform="translate(-2174.561 -2906.663)"/><path class="f" d="M2324.064,2870.457c-2.319,2.714-4.713-6.187-5.773-10.846-.036,3.2-.075,7.473-.1,12.426,1.431,1.468,5.863,6.355,5.245,9.975-.6,3.514-4.018-3.806-5.258-6.625-.008,2.588-.012,5.319-.009,8.144,1.792,1.557,6.12,5.779,4.054,8.645-1.672,2.32-3.19-2.277-4.049-5.784.009,3.217.028,6.53.059,9.872,2.166,1.734,8.187,7.094,5.989,11.548-1.95,3.952-4.657-4.395-5.964-9.138.04,3.563.095,7.138.168,10.645,1.188,1.988,5.518,9.6,3.148,11.243-1.281.887-2.285-.979-2.945-3.4.1,3.271.225,6.416.372,9.36,1.58,1.046,8.1,5.593,7.346,8.863-.474,2.042-5.59,0-5.59,0s4.192,11.18,0,10.481c-2.972-.5-2.784-10.122-2.422-15.683q-.093-1.534-.176-3.159c-.62,2.329-1.671,4.014-2.861,2.59-2.092-2.5,1.782-8.449,2.56-9.589-.11-3.061-.2-6.256-.273-9.519-1.608,3.132-7.727,10.61-8.429,6.805-.674-3.657,6.546-9.028,8.357-10.311-.06-3.248-.105-6.538-.138-9.806-1.161,2.475-5.125,10.4-8.083,9.988-3.43-.48,2.637-7.813,8.078-10.55-.031-3.206-.05-6.387-.06-9.484-.011.082-.022.161-.035.248-.326,2.1-3.981,10.033-5.61,7.406s5.61-10.021,5.61-10.021a.4.4,0,0,1,.03.066c-.006-2.992,0-5.888,0-8.633-1.152,2.909-5.177,9.365-6.466,7.2-1.224-2.056,4.508-8.163,6.476-10.164.017-3.972.044-7.549.073-10.532-1.366,2.991-5.507,11.226-6.773,8.242-1.349-3.18,5.265-9.295,6.8-10.654,0-.293.006-.577.009-.854h3.287C2323.147,2863.05,2325.985,2868.208,2324.064,2870.457Z" transform="translate(-1985.489 -2860.163)"/><path class="h" d="M730.487,4311.864H658.759a8.986,8.986,0,0,0-8.987,8.987l1.8,23.31,87.694-13.5.212-9.807A8.987,8.987,0,0,0,730.487,4311.864Z" transform="translate(-579.473 -4091.449)"/><path class="i" d="M2135.9,4433.773l30.9,9.533,2.425-16.925c.256-1.58-.561-3.1-1.668-3.1h-31.271c-1.107,0-1.925,1.516-1.669,3.1Z" transform="translate(-1838.213 -4185.907)"/><path class="j" d="M1427.973,4256.959c.909-10.861,2.384-19.218,2.384-19.218l12.655-4.752,6.945,23.971Z" transform="translate(-1239.195 -4024.582)"/><path class="k" d="M1465.079,4208.453l-5.583-32.682,53.532,6.988a171.464,171.464,0,0,1,13.675,25.694Z" transform="translate(-1265.919 -3976.076)"/></g><path class="l" d="M1450.253,2924.964c-2.149-9.771-4.255-19.6,1.412-30.337a27.554,27.554,0,0,1,21.688-14.773c26-3.084,20.439,21.184,56.773,26.437,11.29,1.633,21.778,3.2,31.2,8.816,17.02,10.139,23.445,26.4,12.157,52.9-27.639,64.878-93.775,8.5-103.862-2.974C1459.613,2953.643,1451.637,2931.254,1450.253,2924.964Z" transform="translate(4585.808 -1998.257)"/><path class="m" d="M1483.91,3380.226s13.126,1.49,20.977,10.03-12.691,77.192-14.119,88.062,11.7,36.227,11.7,36.227-49.047,9.064-62.372.265c0,0-1.427-78.162,0-85.927s13.324-39.34,16.179-42.446S1483.91,3380.226,1483.91,3380.226Z" transform="translate(4593.065 -2422.679)"/><path class="n" d="M1589.191,3203.934s.1.583.287,1.576c.885,4.762,4.292,20.558,6.594,24.9,2.782,5.248-9.524,21.986-21.367,19.943-3.526-.608,2.98-15.379,2.667-16.944-.6-3-1.41-7.081-2.241-11.271-.468-2.364-.943-4.76-1.389-7.012-1.267-6.4-2.3-11.635-2.3-11.635Z" transform="translate(4481.178 -2272.853)"/><path class="o" d="M1589.478,3205.51c-.185-.992-.287-1.576-.287-1.576l-17.748-.441s1.033,5.235,2.3,11.635c.443,2.24.915,4.622,1.381,6.973a16.638,16.638,0,0,0,8.474-4.24,22.342,22.342,0,0,0,6.419-9.527C1589.8,3207.214,1589.615,3206.249,1589.478,3205.51Z" transform="translate(4481.178 -2272.853)"/><path class="n" d="M1516.509,2929.28a20.945,20.945,0,0,1,12.481,7.772c5.244,6.769,10.9,27.7-2.13,39.078s-25.9-1.5-27.8-15.159S1497.533,2928.787,1516.509,2929.28Z" transform="translate(4543.184 -2040.38)"/><ellipse class="n" cx="3.47" cy="6.147" rx="3.47" ry="6.147" transform="translate(6037.027 911) rotate(-12.791)"/><g transform="translate(5991.569 935.399)"><path class="b" d="M1384.5,3414.2a20.908,20.908,0,0,1,1.8-7.379c1.428-2.746,3.938-4.728,6.13-6.911a38.342,38.342,0,0,0,9.141-14.571c1.463-4.228,2.193-8.732,4.209-12.724,1.231-2.438,2.91-4.617,4.309-6.963,3.305-5.544,5.1-12.1,9.586-16.735a20.117,20.117,0,0,1-4.543,15.913,26.842,26.842,0,0,0-3.225,3.922c-1.527,2.675-1.388,5.938-1.566,9.014a39.585,39.585,0,0,1-4.734,16.567c-2.94,5.4-7.185,10.209-8.758,16.155-1.178,4.456-.828,9.455-3.34,13.317a3.406,3.406,0,0,0-.651,1.334,2.907,2.907,0,0,0,.049.837l.168,1.076c.572,3.647,1.162,8.288-1.972,11.018-2.172,1.892-4.968,1.934-6.528-.579-1.571-2.531-1.432-6.233-1.315-9.081C1383.463,3423.669,1383.97,3418.914,1384.5,3414.2Z" transform="translate(-1350.81 -3331.535)"/><path class="f" d="M1341.749,3314.48c1.219-4.222,3.112-8.243,4.06-12.534a59.077,59.077,0,0,0,.93-12.729q0-7.007.01-14.015a52.811,52.811,0,0,1,.486-8.7c1.034-6.171,4.241-11.877,4.785-18.111.235-2.7-.038-5.42.259-8.11a12.763,12.763,0,0,1,1.275-4.468,1.99,1.99,0,0,1,3.571.1c1.558,3.375,2.546,7.024,1.917,10.641a43.54,43.54,0,0,1-2.019,6.279c-3.124,9.293-1.466,19.581-3.883,29.083-.73,2.868-1.833,5.681-1.961,8.638-.307,7.078,4.979,13.543,4.494,20.611-.4,5.795-4.564,10.591-6.313,16.128-.979,3.1-1.188,6.409-2.237,9.487-.815,2.391-2.71,5.294-5.653,4.568-2.794-.689-1.95-2.97-1.825-5.148C1340.066,3328.83,1339.669,3321.679,1341.749,3314.48Z" transform="translate(-1313.699 -3234.748)"/><path class="b" d="M1268.983,3341.8a33.713,33.713,0,0,0,.187-6.576,38.427,38.427,0,0,0-1.513-5.349,48.1,48.1,0,0,1-1.458-10.306l-1.292-18.918c-.67-9.8-1.343-19.633-3.176-29.286-.509-2.68-1.08-5.583.124-8.03.254-.516.753-1.063,1.3-.891.39.122.582.552.723.937,4.006,10.888,5.521,22.61,9.993,33.314a42.888,42.888,0,0,1,2.872,7.811c.666,3.271.3,6.649.214,9.986a47.115,47.115,0,0,0,1.664,14.209,58.738,58.738,0,0,1,2,7.236,38.067,38.067,0,0,1-.22,9.341,143.5,143.5,0,0,0-.577,17.992c.109,3.529-2.87,3.436-4.843,1.268-1.38-1.516-1.367-3.18-1.839-5.067C1271.587,3353.273,1268.606,3348.516,1268.983,3341.8Z" transform="translate(-1247.329 -3258.198)"/><path class="f" d="M1426.376,3734.146c2.634-4.232,7.88-6.638,9.564-11.331.428-1.194.6-2.479,1.119-3.635,1.162-2.567,3.8-4.017,6.4-5.2a.549.549,0,0,1,.776.495h0a1.875,1.875,0,0,1-.813,1.585,10.539,10.539,0,0,0-4.2,5.728c-.8,2.75-.454,5.766-1.452,8.452-.837,2.255-2.561,4.1-3.371,6.362-.74,2.07-.663,4.333-1.01,6.5s-1.312,4.476-3.306,5.395C1422.871,3751.826,1424.674,3736.88,1426.376,3734.146Z" transform="translate(-1386.114 -3640.978)"/><path class="b" d="M1180.691,3679.993c.112,2.046-.2,4.191.6,6.076a18.438,18.438,0,0,0,2.19,3.252c2.656,3.756,3.619,9.078,7.7,11.193a1.39,1.39,0,0,0,.868.209,1.33,1.33,0,0,0,.86-.873c1-2.331-.122-4.957-.787-7.4a1.82,1.82,0,0,1-.01-1.3c.225-.433.737-.621,1.086-.961a3.171,3.171,0,0,0,.493-2.764,62.613,62.613,0,0,0-1.455-7.146,12.514,12.514,0,0,0-1.53-3.823,16.938,16.938,0,0,0-3.224-3.189,38.2,38.2,0,0,1-11.152-16.462,10.814,10.814,0,0,0-1.867-3.9c-.974-1.076-2.71-1.63-3.9-.795-.844.594,2.614,6.156,3.017,6.823,1.152,1.906,1.167,3.564,1.818,5.68C1177,3669.8,1180.386,3674.437,1180.691,3679.993Z" transform="translate(-1170.435 -3588.222)"/><path class="f" d="M1211.2,3579.955a25.175,25.175,0,0,1-1.765-6.007c-.277-2.311.09-4.673-.3-6.966-.507-2.948-2.226-5.541-3.077-8.408a55.581,55.581,0,0,1-1.134-6.375c-1.055-6.086-3.917-12.033-3.1-18.156.179-1.332.78-2.884,2.1-3.111a2.55,2.55,0,0,1,2.6,2.064,11.15,11.15,0,0,1-.006,3.629,14.981,14.981,0,0,0,2.684,9.609c1.88,2.66,4.607,4.662,6.3,7.446,2.075,3.415,2.357,7.583,3.416,11.437,2.105,7.665,7.386,14.352,8.349,22.243.383,3.14-.354,6.957-3.252,8.211C1215.624,3599.2,1213.094,3584.865,1211.2,3579.955Z" transform="translate(-1196.917 -3485.818)"/><path class="j" d="M1249.468,3916.963H1268.7a2.04,2.04,0,0,1,1.982,2.512l-7.012,29.568a2.037,2.037,0,0,1-1.981,1.569h-23.106a2.037,2.037,0,0,1-1.981-1.569l-7.012-29.568a2.04,2.04,0,0,1,1.981-2.512Z" transform="translate(-1220.538 -3813.098)"/></g><path class="n" d="M1711.228,3063.911c-.65,3.535.657,6.776,2.921,7.24s4.625-2.025,5.275-5.561-.657-6.776-2.921-7.24S1711.878,3060.376,1711.228,3063.911Z" transform="translate(4362.816 -2159.809)"/><path class="n" d="M1385.1,3879.163l-20.262,1.761,2.029,12.066c-17.994,4.5-43.475,6.363-43.475,6.363s-2.392.209-5.477.241c-2.842.028-6.848.066-8.416.073a23.749,23.749,0,0,1-6.5-.977c-1.794-.49-4.882-1.321-6.283-1.033-.882.182-3.28.584-4.561.8s-2.793.413-3.457.608a6.632,6.632,0,0,1-2.014-.072,1.11,1.11,0,0,0-1.011,1.805,4.84,4.84,0,0,0,2.793,1.1c2.363.387,6.1-.38,6.025-.024s-5.614,3.686-6.223,4.107-7.027,4.326-8.021,5.5-.432,1.982.45,1.91c.759-.063,10.025-4.8,10.025-4.8s1.183-.6,1.01.088-8.577,5.008-9.71,5.886-1.477,2-.163,2.318c1.6.39,10.284-4.773,10.284-4.773s1.1-.628,1.187-.087-7.125,4.1-7.617,4.737a1.056,1.056,0,0,0,.919,1.756c1.482.052,9.2-4.624,9.2-4.624s.686-.188.59.208-6.028,3.867-6.36,4.74a.732.732,0,0,0,.375,1c1.269.864,6.569-3.308,9.564-4.464s5.81-3.862,9.531-4.847c2.252-.6,6.064-.611,9.521-.454,2.334.2,4.893.4,7.606.6h0c24.676,1.846,62.248,3.475,62.2-4.719C1388.828,3901.78,1386.05,3888.011,1385.1,3879.163Z" transform="translate(4728.492 -2845.654)"/><path class="p" d="M1756.84,3428.2s6.286,2.98,11.811,15.854c5.251,12.233,9.379,55.545,9.379,55.545l-26.688,2.32-7.316-16.519a52.206,52.206,0,0,1,5.4-51.918C1752.355,3429.468,1755.057,3427.044,1756.84,3428.2Z" transform="translate(4338.707 -2463.104)"/><path class="q" d="M1563.692,3163.775l13.652-1.56a6.461,6.461,0,0,1-6.216,5.9A6.9,6.9,0,0,1,1563.692,3163.775Z" transform="translate(4487.749 -2237.859)"/></g></svg>