<svg xmlns="http://www.w3.org/2000/svg" width="271" height="76" viewBox="0 0 271 76"><defs><style>.a{fill:#16b7b6;}.b{fill:#707070;font-size:52px;font-family:Heebo-Medium, Heebo;font-weight:500;}</style></defs><g transform="translate(-103 -33.234)"><g transform="translate(103 39.843)"><path class="a" d="M86.6,97.433c11.83.179,22.029,7.948,24.659,18.872a15.325,15.325,0,0,1-3.14,13.88,3.225,3.225,0,0,1-3.909,1.2,21.161,21.161,0,0,1-14.744-20.144c-.038-2.555.316-5.114.288-7.67C89.73,101.249,89.215,99.032,86.6,97.433Z" transform="translate(-84.229 -97.433)"/><path class="a" d="M165.729,161.649a7.417,7.417,0,0,0-5.285,4.793c-2.607,6.169-6.513,11.258-13.026,13.667a17.838,17.838,0,0,1-9.617,1.076c-1.982-.372-2.5-1.481-2.648-3.225-.462-5.422,1.611-9.635,5.748-13.076A23.453,23.453,0,0,1,165.729,161.649Z" transform="translate(-111.934 -132.879)"/><path class="a" d="M81.067,168.685a17.073,17.073,0,0,1,13.271,2.337c4.981,3.245,7.071,8.016,5.854,13.288-.45,1.952-1.525,2.7-3.525,2.44a14.431,14.431,0,0,1-12.541-11.155,18.08,18.08,0,0,0-.869-3.276A35.537,35.537,0,0,0,81.067,168.685Z" transform="translate(-81.067 -137.893)"/></g><text class="b" transform="translate(269 87.234)"><tspan x="-104.292" y="0">Plant</tspan><tspan class="a" y="0">You</tspan></text></g></svg>