<svg xmlns="http://www.w3.org/2000/svg" xmlns:xlink="http://www.w3.org/1999/xlink" width="452.115" height="179.677" viewBox="0 0 452.115 179.677"><defs><style>.a,.l{fill:none;}.b{fill:#badaef;}.c{fill:#bfdbf3;}.d{fill:#7baabf;}.e{fill:#3dc8a1;}.f{fill:#004c80;}.g{fill:#00456b;}.h{fill:#46c6a5;}.i{fill:#fff;}.j{fill:#e1f4ff;}.k{fill:#419e97;}.l{stroke:#337f7d;stroke-miterlimit:10;stroke-width:1.283px;}.m{fill:#cef;}.n{fill:#8ddcfc;}.o{opacity:0.45;mix-blend-mode:multiply;isolation:isolate;fill:url(#a);}.p{fill:#a9d2d4;}.q{fill:#90c4c4;}.r{fill:#82c4c4;}.s{clip-path:url(#b);}.t{fill:#66b2b0;}</style><linearGradient id="a" x1="0.55" y1="0.511" x2="0.55" y2="1.526" gradientUnits="objectBoundingBox"><stop offset="0.366" stop-color="#86cf94"/><stop offset="0.989" stop-color="#008166"/></linearGradient><clipPath id="b"><path class="a" d="M135.46,279.594c13.317-11.016,29.364-22.636,34.308-39.121-13.741,9.817-23.837,23.761-33.518,37.634,4.847-9.168,6.626-10.364,12.293-20.477a90.036,90.036,0,0,0,11.108-35.717c-10.4,13.184-17.274,28.987-22.533,45.111,4.467-21.524,13.609-41.894,11.395-63.919a119.4,119.4,0,0,0-13.137,36.921c-.642,3.7-1.132,7.133-1.489,10.419-.412-14.767-1.888-29.446-5.713-43.683a72.88,72.88,0,0,0-3.628,31.937,127.132,127.132,0,0,0,3.131,16.674A211.683,211.683,0,0,0,113.353,223.1a17.425,17.425,0,0,0-4.117-5.474c-1.274,3.953-1.092,12.465-.331,16.547A81.322,81.322,0,0,0,120,263.363c-5.246-4.9-11.319-8.949-20.929-12.422,5.229,14.152,22.119,24.077,35.843,29.076l-.037.055.057-.048c.081.029.164.064.245.094C135.279,279.933,135.364,279.772,135.46,279.594Z" transform="translate(-99.073 -203.104)"/></clipPath></defs><g transform="translate(-396.941 -347.558)"><g transform="translate(396.941 347.558)"><g transform="translate(0 0)"><rect class="b" width="19.423" height="452.115" transform="translate(452.115 99.507) rotate(90)"/><g transform="translate(18.033 81.618)"><rect class="b" width="19.423" height="97.659"/><rect class="c" width="19.423" height="98.059" transform="translate(395.708)"/></g><rect class="d" width="19.423" height="6.134" transform="translate(18.033 118.93)"/><g transform="translate(46.16)"><g transform="translate(0 21.779)"><g transform="translate(0)"><g transform="translate(0 8.799)"><path class="e" d="M124.691,102.94S103.952,90.8,99.456,66.968c0,0,19.535,4.047,29.328,35.972" transform="translate(-99.456 -66.968)"/></g><g transform="translate(29.328 8.799)"><path class="e" d="M122.673,102.94S143.414,90.8,147.91,66.968c0,0-19.535,4.047-29.328,35.972" transform="translate(-118.582 -66.968)"/></g><g transform="translate(15.8 0.164)"><path class="e" d="M121.118,103.994s-14.957-18.81-10.544-42.657c0,0,16.755,10.827,14.359,44.136" transform="translate(-109.76 -61.337)"/></g><g transform="translate(27.798)"><path class="e" d="M121.773,104.125s14.506-19.16,9.528-42.9c0,0-16.495,11.223-13.308,44.464" transform="translate(-117.584 -61.23)"/></g></g><g transform="translate(6.244 39.936)"><rect class="f" width="45.19" height="37.792"/><rect class="g" width="8.879" height="37.792" transform="translate(36.311)"/></g></g><g transform="translate(73.517 48.018)"><path class="h" d="M166.16,85.126s1.434-8.371,6.324-6.515S173.5,88.666,173.5,88.666s3.947-6.874,7.713-4.008-3.751,11.908-3.751,11.908,5.565-5.117,7.25-.9-7.25,9.358-7.25,9.358h-22.6s-8.937-5.143-7.25-9.358,7.25.9,7.25.9-7.515-9.041-3.749-11.908,7.713,4.008,7.713,4.008-3.879-8.2,1.01-10.056,6.324,6.515,6.324,6.515" transform="translate(-147.4 -78.342)"/><g transform="translate(3.063 24.367)"><rect class="i" width="32.431" height="27.122"/><rect class="j" width="6.372" height="27.122" transform="translate(26.059)"/></g></g><g transform="translate(125.054 39.732)"><path class="k" d="M210.011,103.391c-3.254,3.614-10.2-1.526-12.7-4.37-2.6-2.958-4.034-6.968-7.244-9.245-2.588-1.837-5.9-2.23-9.058-2.564,4.694-1.878,7.351-1.119,12.172.4s16.242,9.562,15.082,15.081" transform="translate(-181.01 -65.916)"/><path class="k" d="M203.053,101.724c-1.759-1.366-2.789-4.249-3.406-6.39s-.885-4.369-1.478-6.515A22.542,22.542,0,0,0,191.6,78.157c5.249.225,9.878,4.142,11.951,8.967s1.9,10.375.592,15.464" transform="translate(-175.363 -70.154)"/><path class="k" d="M198.011,107.75c-.133-4.352,3.711-14.179,6.107-17.813a41.828,41.828,0,0,1,9-9.386c1.271-1.017,2.722-2.044,4.347-1.963a20.554,20.554,0,0,0-7.224,10.482c-.665,2.266-.934,4.634-1.57,6.909-1.74,6.223-2.736,10.1-8.98,11.766" transform="translate(-171.944 -69.927)"/><path class="k" d="M200.046,104.426a13.573,13.573,0,0,0,7.2-3.1c4.289-3.626,6.011-9.631,10.344-13.2a13.275,13.275,0,0,1,5.939-2.782c-1.742-1.306-4.111-1.412-6.265-1.1-8.193,1.2-14.866,7.655-18.453,15.116" transform="translate(-171.517 -66.987)"/><path class="k" d="M199.35,92.9a20.774,20.774,0,0,1,12.108-18.772,23.541,23.541,0,0,1-2.639,5.134,44.551,44.551,0,0,0-6.031,18.779" transform="translate(-171.228 -72.304)"/><path class="k" d="M197.805,98.5c.859-8.135,1.665-16.746-1.173-25.559a36.157,36.157,0,0,1,7.724,12.68c1.589,4.718,1.828,9.757.235,13.354" transform="translate(-172.677 -72.938)"/><path class="k" d="M203.929,105.4c-3.516-5.407-12.24-20.75-17.427-24.543,3.223-.725,6.17-.362,9.834,2.943,4.953,4.468,8.949,13.658,10.376,20.173" transform="translate(-178.081 -68.883)"/><g transform="translate(5.833 7.782)"><path class="l" d="M184.814,86.861c4.267.251,8.208,4.459,10.95,7.739s7.4,6.407,11.076,8.584" transform="translate(-184.814 -73.294)"/><path class="l" d="M190.963,83.844a33.826,33.826,0,0,1,9.331,15.84,10.493,10.493,0,0,0,.96,2.766,9.123,9.123,0,0,0,2.306,2.343" transform="translate(-181.534 -74.903)"/><path class="l" d="M194.9,80.491a10.21,10.21,0,0,1,4.419,6.008,30.326,30.326,0,0,1,.983,7.555q.193,4.234.385,8.47a8.335,8.335,0,0,0,.33,2.34,3.757,3.757,0,0,0,.865,1.6" transform="translate(-179.437 -76.691)"/><path class="l" d="M198.594,78.037a34.6,34.6,0,0,1,2.418,18.69c-.589,3.929-1.331,6.781-.339,10.626" transform="translate(-177.464 -78)"/><path class="l" d="M206.229,78.013c-2.042,2.9-2.625,6.554-3.084,10.073q-.472,3.627-.843,7.27c-.391,3.818-.711,7.7-2.027,11.3" transform="translate(-176.567 -78.013)"/><path class="l" d="M214.964,87.253c-3.34,1.306-5.816,4.149-7.932,7.044s-4.059,6-6.863,8.234" transform="translate(-176.624 -73.084)"/><path class="l" d="M208.732,83.375a7.711,7.711,0,0,0-3.168,4.519,49.3,49.3,0,0,0-1.035,5.548,28.468,28.468,0,0,1-4.579,11.065" transform="translate(-176.741 -75.153)"/></g><g transform="translate(11.833 32.653)"><rect class="m" width="32.431" height="27.122"/><rect class="n" width="6.372" height="27.122" transform="translate(26.059)"/></g></g><g transform="translate(286.816 3.384)"><path class="e" d="M210.6,269.371s18.332-1,18.353-4.72c.017-2.9-11.2-.446-11.2-.446s12.267-3.559,17.938-6.471a9.964,9.964,0,0,0,3.384-2.423,3.586,3.586,0,0,0,.544-3.909c-.955-1.635-3.245-1.766-5.125-1.54-7.552.911-12.859,4.948-19.657,8.362a62.216,62.216,0,0,0,13.549-9.4c3.812-3.406,8.25-6.6,10.79-11.157,1.593-2.854,2.225-7.069-.595-9.417-2.734-2.276-6.652-1.213-9.654-.158a39.394,39.394,0,0,0-19.779,15.625,68.094,68.094,0,0,0,2.789-10.289c.264-1.409.362-3.145-.8-3.981-1.51-1.083-3.527.366-4.7,1.8a35.491,35.491,0,0,0-6.356,11.819c.926-9.624,1.842-19.436-.251-28.875a15.248,15.248,0,0,0-2.484-6.081,6.6,6.6,0,0,0-5.7-2.775c-2.079.225-3.8,1.7-5.189,3.263a28.7,28.7,0,0,0-.9,37.194,39.451,39.451,0,0,0-7.5-6.14c-.615-.388-1.518-.721-1.981-.159a1.469,1.469,0,0,0-.2,1.079c.423,4.576,3.492,8.412,6.43,11.945a29.7,29.7,0,0,0-24.456-10.116c-1.1.086-2.355.331-2.917,1.283a3.053,3.053,0,0,0-.271,1.869c.488,4.588,4.537,7.917,8.518,10.251,3.349,1.964,6.876,3.605,10.4,5.244a28.525,28.525,0,0,0-6.083-.215,1.672,1.672,0,0,0-1.262.474c-.534.7.218,1.639.928,2.153a27.048,27.048,0,0,0,17.752,4.988" transform="translate(-154.636 -205.311)"/><path class="o" d="M225.475,229.755c.225-.163.448.2.23.36a103.289,103.289,0,0,0-16,14.894A123.756,123.756,0,0,0,197.3,262.994a.206.206,0,0,1-.363-.193c6.244-13.092,16.872-24.6,28.543-33.046Zm-26.382,4.729c-3.349,8.582-5.361,19.393-4.686,28.628a.182.182,0,0,0,.363-.014c.15-9.3,1.536-19.692,4.81-28.432.1-.274-.379-.458-.488-.182Zm-11.606-18.959A132.958,132.958,0,0,0,191.4,263.35c.07.256.434.127.383-.121a210.5,210.5,0,0,1-3.717-24.166,201.474,201.474,0,0,1-.3-23.511c.006-.156-.262-.186-.278-.026Zm-14.242,23.538c4.732,6.724,9.976,19.16,16.19,24.582a.258.258,0,0,0,.351-.379c-5.617-6.178-11.122-17.757-16.159-24.447-.173-.228-.55,0-.382.244Zm51,10.418c-9.386,4.234-19.063,9.214-27.017,15.831-.247.205-.008.624.278.434,8.757-5.813,17.232-11.537,26.862-15.88.233-.106.113-.491-.123-.385Zm-58.364-1.159c6.834,4.08,14.142,12.8,21.593,15.644.235.089.429-.239.19-.356-7.221-3.53-14.6-11.661-21.587-15.659-.235-.135-.426.233-.2.371Z" transform="translate(-148.694 -199.92)"/><g transform="translate(25.814 62.968)"><rect class="p" width="39.996" height="33.448"/><rect class="q" width="7.859" height="33.448" transform="translate(32.137)"/></g></g><g transform="translate(202.407)"><g transform="translate(0)"><path class="r" d="M122.424,267.074c10.107-14.512,20.5-29.318,34.889-39.6-5.014,16.723-21.461,28.443-34.889,39.6" transform="translate(-86.618 -190.105)"/><path class="r" d="M121.624,271.874c5.687-19.943,13.155-40.221,26-56.5a87.112,87.112,0,0,1-10.8,35.167c-6.06,10.815-7.834,12.1-13.672,23.039" transform="translate(-87.045 -196.561)"/><path class="r" d="M127.587,272.258c-11.922-12.9-18.677-25.867-21.894-43.137-.761-4.082-.943-12.594.331-16.547a17.425,17.425,0,0,1,4.117,5.474c9.8,17.613,16.841,37.49,21.828,57.019" transform="translate(-95.861 -198.053)"/><path class="r" d="M124.836,276.8c-3.084-13.377-7.5-25.724-9-39.371a72.88,72.88,0,0,1,3.628-31.937c6.311,23.484,6.247,48.165,5.517,72.471" transform="translate(-90.359 -201.832)"/><path class="r" d="M135.181,263.478c-13.771-4.97-30.847-14.935-36.108-29.177,18.83,6.805,24.1,15.791,36.108,29.177" transform="translate(-99.073 -186.464)"/><path class="r" d="M121.814,278.416a143.774,143.774,0,0,1,1.724-38.391A119.413,119.413,0,0,1,136.674,203.1c2.6,25.838-10.456,49.389-13.224,75.21" transform="translate(-87.234 -203.104)"/><g class="s"><g transform="translate(1.605 21.644)"><g transform="translate(11.324 42.585)"><path class="t" d="M108.344,252.681c5.749-2.334,11.25-4.56,17.476-5.273,6.242-.716,12.014.305,18.158,1.148.722.1.834-.948.228-1.2-10.919-4.5-26.876-2.334-36.485,4.393-.555.388.067,1.153.623.929Z" transform="translate(-107.505 -244.991)"/></g><g transform="translate(13.107 40.561)"><path class="t" d="M109.009,248.9c14.247-5.448,27.975-5.117,42.458-.945a.26.26,0,0,0,.164-.492c-13.267-5.684-29.786-4.688-42.832,1.017-.279.123-.067.526.21.42Z" transform="translate(-108.667 -243.671)"/></g><g transform="translate(2.993 33.225)"><path class="t" d="M102.413,247.509c9.752-3.941,19.41-6.756,30-7.067a73.12,73.12,0,0,1,14.02.931c5.246.863,10.123,2.693,15.242,4,.517.132.977-.606.445-.9-8.722-4.847-20.468-5.93-30.265-5.5-10.156.446-20.842,2.886-29.656,8.105a.241.241,0,0,0,.215.431Z" transform="translate(-102.071 -238.887)"/></g><g transform="translate(14.087 46.275)"><path class="t" d="M109.709,252.734c11.658-5.053,23.772-5.322,36.044-2.668.25.054.382-.3.129-.385-11.861-4.017-25.122-2.466-36.421,2.553-.328.146-.08.641.248.5Z" transform="translate(-109.306 -247.398)"/></g><g transform="translate(22.759 50.264)"><path class="t" d="M115.318,252.909c8.216-2.432,16.18-2.059,24.527-.7.322.054.4-.455.106-.555-8-2.671-16.824-1.86-24.76.647-.376.118-.259.722.127.607Z" transform="translate(-114.961 -249.999)"/></g><g transform="translate(4.662 32.011)"><path class="t" d="M103.4,243.808c22.015-8.332,48-5.746,70.041.843a.26.26,0,0,0,.166-.492c-11.477-5.3-25.379-5.96-37.82-6.06-11.076-.089-22.265,1.021-32.534,5.413-.2.084-.048.37.147.3Z" transform="translate(-103.16 -238.095)"/></g><g transform="translate(4.895 19.818)"><path class="t" d="M103.568,234.694c10.091-4.2,22.23-4.576,32.991-3.717a95.965,95.965,0,0,1,31.071,7.937c.291.127.446-.342.156-.469a96.306,96.306,0,0,0-32.632-8.046c-10.332-.662-22.15-.268-31.744,3.976-.21.094-.051.4.158.319Z" transform="translate(-103.312 -230.143)"/></g><g transform="translate(5.289 16.561)"><path class="t" d="M103.73,231.768c24.712-5.894,49.662-2.844,72.655,7.658.423.193.787-.531.366-.744-22.3-11.261-49.036-13.508-73.078-7.187-.172.046-.118.316.057.273Z" transform="translate(-103.569 -228.02)"/></g><g transform="translate(17.324 6.857)"><path class="t" d="M111.471,221.85a.082.082,0,0,0,.052-.155.082.082,0,0,0-.052.155Z" transform="translate(-111.417 -221.691)"/></g><path class="t" d="M100.235,227.966c20.807-10.9,48.469-15.2,68.817-1.273.261.178.612-.195.374-.425-8.918-8.567-23.453-9.654-35.125-8.817a80.228,80.228,0,0,0-34.139,10.367c-.09.052-.021.2.074.147Z" transform="translate(-100.119 -217.219)"/></g></g></g><g transform="translate(11.997 66.158)"><rect class="p" width="39.996" height="33.448"/><rect class="q" width="7.859" height="33.448" transform="translate(32.137)"/></g></g></g></g><rect class="d" width="19.423" height="6.134" transform="translate(413.869 118.93)"/></g></g></svg>