<svg xmlns="http://www.w3.org/2000/svg" xmlns:xlink="http://www.w3.org/1999/xlink" width="376.121" height="294.112" viewBox="0 0 376.121 294.112"><defs><style>.a,.b{fill:#d8dbf1;}.b{opacity:0.7;}.c,.k,.l{fill:#fff;}.c,.g,.h,.i{stroke:#3d4351;}.c,.e,.f,.g,.i,.j{stroke-linecap:round;stroke-linejoin:round;}.d{fill:#3d4351;}.e,.f,.h,.i,.j{fill:none;}.e,.f{stroke:#fff;}.f{stroke-width:0.5px;}.g{fill:#7b84cf;}.h{stroke-miterlimit:10;}.j{stroke:#1c262b;}.l{opacity:0.8;}.l,.m{isolation:isolate;}.m{filter:url(#a);}</style><filter id="a" x="0" y="35.782" width="376.121" height="258.33" filterUnits="userSpaceOnUse"><feOffset dy="3" input="SourceAlpha"/><feGaussianBlur stdDeviation="3" result="b"/><feFlood flood-opacity="0.161"/><feComposite operator="in" in2="b"/><feComposite in="SourceGraphic"/></filter></defs><g transform="translate(9)"><g transform="translate(0 41.782)"><path class="a" d="M787.611,492.793s33.141-43.579,24.216-119.461-54.8-97.783-84.117-98.036-57.331,34.8-96.872,41.87-94.346-13-138.921,3.973S443.487,440.2,479.814,480.4s113.429,38.616,159.325,28.525S753.836,539.169,787.611,492.793Z" transform="translate(-455.232 -275.295)"/><g class="m" transform="matrix(1, 0, 0, 1, -9, -41.78)"><path class="b" d="M787.611,492.793s33.141-43.579,24.216-119.461-54.8-97.783-84.117-98.036-57.331,34.8-96.872,41.87-94.346-13-138.921,3.973S443.487,440.2,479.814,480.4s113.429,38.616,159.325,28.525S753.836,539.169,787.611,492.793Z" transform="translate(-446.23 -233.51)"/></g></g><path class="c" d="M756.96,331.5s4.022,10.278,3.217,15.417-11.648,9.421-13.257,10.278-10.039-3-10.039-12.847S752.133,323.376,756.96,331.5Z" transform="translate(-618.223 -263.107)"/><path class="d" d="M773.35,269.434l22.62-2.792a8.181,8.181,0,0,1,8.87,7.584c0,.036.007.072.011.108h0a8.42,8.42,0,0,1-7.354,9.241c-.144.013-.289.022-.433.026l-20.915.462Z" transform="translate(-639.327 -228.714)"/><path class="c" d="M779.538,260.537s4.827-1.713,8.044,0,6.033,4.283,5.631,6-2.816,1.285-6.033,1.713-6.677,2.792-7.352.977S779.538,260.537,779.538,260.537Z" transform="translate(-642.845 -224.956)"/><path class="d" d="M807.871,277.248l22.765-.617a8.294,8.294,0,0,1,8.187,8.409c0,.052,0,.1,0,.156h0a8.319,8.319,0,0,1-8.028,8.581q-.257,0-.514-.017L809.367,292.2Z" transform="translate(-659.304 -234.25)"/><path class="d" d="M782.892,278.008l11.616.274a7.283,7.283,0,0,1,2.59,5.139,35.379,35.379,0,0,1-1.046,8.8H783.664a11.406,11.406,0,0,1-3.6-5.5C779.03,283.215,782.892,278.008,782.892,278.008Z" transform="translate(-643.11 -235.102)"/><path class="d" d="M707.871,696.186a53.949,53.949,0,0,1,7.337-.231c1.583.128,3.162.321,4.737.544.557-.15,1.117-.274,1.68-.379,1.76-27.684-4.3-87.03-4.3-87.03s-33.962,8.376-55.456-5.807c0,0-3.443,15.108-.853,21.96s3.008,17.849,3.443,21.514c.391,3.3-3.415,28.416-5.434,45.13,3.25.619,6.5,1.252,9.756,1.785,1.71.23,3.418.469,5.122.737,1.22-.025,2.44-.035,3.647-.046a60.89,60.89,0,0,1,7.954.569c.009-.081.015-.126.015-.126l.016.13c2.267.278,4.531.593,6.788.8A106.81,106.81,0,0,0,707.871,696.186Z" transform="translate(-573.168 -414.952)"/><path class="e" d="M700.219,732.64l-5.583-33.4-9.46-17.4" transform="translate(-588.301 -458.267)"/><path class="c" d="M743.166,250.13a41.538,41.538,0,0,1,2.027,9.1c0,3.015-1.609,5.139-1.222,7.348s3.652,5.618.82,11.237-.418,13.84-4.472,15.57a24.758,24.758,0,0,1-8.527,1.713l-1.223,9.507-20.3-6.852V280.415s8.527.428,11.776-3.906,2.43-13.4,4.054-19.459,8.125-9.935,10.972-9.935S743.166,250.13,743.166,250.13Z" transform="translate(-602.82 -217.974)"/><path class="d" d="M725.338,206.479a12.807,12.807,0,0,1-5.824,7.828c-4.071,2.6-9.347,1.713-9.347,3.905s3.652,1.713,2.429,7.348a19.179,19.179,0,0,1-4.827,9.079s3.668,4.762,0,5.619-4.457,6.492-8.929,7.794-8.527,4.745-12.179,1.285-15.444-17.729-17.069-27.236,7.32-19.459,7.32-19.459-.4-5.618,2.848-7.794,11.938-2.895,12.758-6.355c3.411-14.389,26.851-.839,30.97,6.766A16.629,16.629,0,0,1,725.338,206.479Z" transform="translate(-579.169 -182.152)"/><path class="f" d="M739.237,229.32a10.7,10.7,0,0,1-4.826,9.284c-5.213,3.083-16.812.617-20.915,6.475s-1.158,15.108-7.24,16.65" transform="translate(-600.5 -208.162)"/><path class="f" d="M738.3,272.624s-5.518,1.85-7.835,5.55-3.475,12.333-10.425,14.492" transform="translate(-608.477 -232.041)"/><path class="c" d="M747.836,306.425s-3.217-10.38-7.722-7.777-.8,10.381,1.608,12.539S747,310.33,747,310.33" transform="translate(-618.865 -246.272)"/><path class="g" d="M667.6,362.605a46.775,46.775,0,0,0-12.42,14.474c-4.826,9.079,1.448,51.269,3.073,62.506s-2.027,29.839.82,35.03,12.179,9.507,21.108,10.38,22.749-.428,28.026-2.158,8.124-6.492,8.124-8.651-.4-28.538-.4-34.173-.4-45.839-3.652-53.616a32.19,32.19,0,0,0-14.222-15.571C693.183,368.241,674.859,358.717,667.6,362.605Z" transform="translate(-569.907 -281.443)"/><path class="h" d="M749.819,478.336s-4.344,4.2-16.6,5.892" transform="translate(-616.102 -345.754)"/><path class="h" d="M746.5,518.508a21.812,21.812,0,0,1-3.893,3.426" transform="translate(-621.538 -367.939)"/><path class="h" d="M766.312,478.336a68.415,68.415,0,0,1-7.32,14.235" transform="translate(-631.019 -345.762)"/><path class="i" d="M730.964,582.433a46.461,46.461,0,0,1-29.634,18.843s17.391.428,28.846-12.625" transform="translate(-597.649 -403.27)"/><path class="g" d="M689.915,347.355s11.777.874,19.5,5.618,13,9.524,15.831,10.381,8.124,1.3,6.435,1.713-3.652.874-7.706,2.159-9.749-1.285-18.276-5.618-17.874-6.852-19.5-6.852S686.665,347.355,689.915,347.355Z" transform="translate(-588.567 -273.412)"/><path class="j" d="M859.691,443.777s13.5,9.61,15.476,16.753" transform="translate(-689.293 -326.674)"/><path class="c" d="M827.8,334.616,813.6,299.243a31.879,31.879,0,0,0-6.1-5.618,2.818,2.818,0,0,1-1.254-3.639,2.757,2.757,0,0,1,.434-.695s4.07.873,4.07-.857a54.945,54.945,0,0,0-.82-8.565c-.4-1.3-1.609-2.176-1.609-3.426s2.847-3.032,6.1-2.159,2.7.36,2.7.36c4.649-1.1,5.55,0,7.867,4.385a25.522,25.522,0,0,1,2.027,10.809c0,2.176-2.446,8.65-2.446,8.65l17.472,35.972Z" transform="translate(-658.225 -232.828)"/><path class="g" d="M853.313,412.347s-5.277,0-4.826-1.3-1.207-6.064-1.207-8.222,3.652-4.762,8.044-5.618,9.347.856,10.972,1.3,2.027,3.888,3.218,6.047,2.027,4.762,1.223,6.492a6.4,6.4,0,0,1-3.218,2.587Z" transform="translate(-682.11 -300.817)"/><path class="g" d="M722.791,400.492s2.848-10.38,8.527-12.539,12.6.856,19.5,5.618S780.467,412.6,780.467,412.6l-2.446-10.38s14.624-4.762,18.276,2.586,6.1,34.173,6.1,37.685-8.527,6.475-13.8,6.047-52-25.078-52-25.078" transform="translate(-610.068 -295.483)"/><path class="i" d="M873.9,453.018a21.734,21.734,0,0,1,10.683,7.571" transform="translate(-697.513 -331.771)"/><path class="k" d="M1052.528,431.175c-4.948-2.871-7.231-.484-9-2.871s4.948-8.623-8.543-14.837c0,0-.9-13.407-19.327-13.891s-13.49,13.407-18.439,16.762-6.291-1.914-11.239,1.43-2.7,10.052-6.746,11-9.441-4.3-14.379-.957-4.948,6.225-7.231,6.225-6.745-1.914-9.441,0-5.847,4.312-5.847,4.312h113.783S1057.466,434.046,1052.528,431.175Z" transform="translate(-737.121 -302.269)"/><path class="l" d="M1136.44,648.017c-2.727-1.595-3.967-.264-4.958-1.595s2.727-4.751-4.721-8.194c0,0-.5-7.4-10.681-7.7s-7.448,7.4-10.175,9.261-3.481-1.1-6.2.792-1.488,5.5-3.729,6.082-5.216-2.387-7.944-.539-2.727,3.443-3.977,3.443-3.718-1.1-5.165,0-3.233,2.376-3.233,2.376h62.826A3.511,3.511,0,0,0,1136.44,648.017Z" transform="translate(-814.273 -429.839)"/><path class="l" d="M540.37,529.964c-2.727-1.584-3.977-.264-4.969-1.584s2.737-4.762-4.71-8.2c0,0-.5-7.4-10.681-7.7s-7.448,7.4-10.185,9.261-3.471-1.1-6.2.792-1.5,5.5-3.729,6.082-5.165-2.386-7.944-.528-2.737,3.432-3.977,3.432-3.719-1.1-5.217,0-3.223,2.376-3.223,2.376h62.816S543.108,531.548,540.37,529.964Z" transform="translate(-469.298 -364.624)"/></g></svg>