<svg xmlns="http://www.w3.org/2000/svg" width="420" height="162.47" viewBox="0 0 420 162.47"><defs><style>.a{fill:#202423;}.b{fill:#f8cf41;}.c{fill:none;stroke:#fa4c84;stroke-miterlimit:10;stroke-width:3px;}.d{fill:#fa4c84;}</style></defs><g transform="translate(-540 -3940.014)"><g transform="translate(960 3999.755) rotate(135)"><g transform="translate(94.641 94.643)"><path class="a" d="M0,23.346V19.125H17.741L17.742,0h4.22V23.346Z" transform="translate(0)"/></g><g transform="translate(81.121 81.123)"><path class="a" d="M0,19.125H17.741V0h4.222V23.346H0Z" transform="translate(0)"/></g><g transform="translate(67.602 67.602)"><path class="a" d="M0,23.347V19.125H17.741V0h4.221V23.347Z"/></g><g transform="translate(54.08 54.082)"><path class="a" d="M0,23.347V19.126H17.741V0h4.221V23.347Z"/></g><g transform="translate(40.561 40.562)"><path class="a" d="M0,23.347V19.125H17.74V0h4.222V23.347Z" transform="translate(0)"/></g><g transform="translate(27.04 27.041)"><path class="a" d="M0,19.125H17.741V0h4.222V23.347H0Z" transform="translate(0)"/></g><g transform="translate(13.519 13.52)"><path class="a" d="M0,23.347V19.126H17.741V0h4.221V23.347Z"/></g><path class="a" d="M0,19.127H17.74V0h4.222V23.347H0Z"/><g transform="translate(107.338 107.339)"><g transform="translate(81.122 81.123)"><path class="a" d="M0,23.346V19.125H17.741V0h4.222l0,23.346Z"/></g><g transform="translate(67.602 67.601)"><path class="a" d="M0,19.126H17.74V0h4.222V23.347H0Z"/></g><g transform="translate(54.082 54.08)"><path class="a" d="M0,19.127H17.74V0h4.222V23.347H0Z"/></g><g transform="translate(40.561 40.561)"><path class="a" d="M0,23.347V19.126H17.741V0h4.222V23.347Z"/></g><g transform="translate(27.041 27.04)"><path class="a" d="M0,19.126H17.74V0h4.222V23.348H0Z"/></g><g transform="translate(13.521 13.52)"><path class="a" d="M0,19.126H17.74L17.741,0h4.221V23.347H0Z"/></g><path class="a" d="M0,23.347V19.126H17.74V0h4.221V23.347Z"/></g></g><g transform="translate(540 3940.014)"><path class="a" d="M91.193,3059.855A5.625,5.625,0,0,1,87.2,3058.2l-45-45a5.641,5.641,0,0,1,0-7.977l45-45a5.644,5.644,0,0,1,7.978,0l45,45a5.641,5.641,0,0,1,0,7.977l-45,45A5.626,5.626,0,0,1,91.193,3059.855Zm-37.026-50.641,37.026,37.025,37.025-37.025-37.025-37.025Z" transform="translate(-40.551 -2897.385)"/><circle class="b" cx="47.049" cy="47.049" r="47.049" transform="translate(3.593 8.786)"/><path class="c" d="M117.241,2892.3v33.545h33.544V2892.3Z" transform="translate(-52.115 -2887.393)"/><path class="d" d="M109.242,2886.521v33.545h33.544v-33.545Z" transform="translate(-50.908 -2886.521)"/></g></g></svg>