<svg xmlns="http://www.w3.org/2000/svg" width="323.889" height="201.263" viewBox="0 0 323.889 201.263"><defs><style>.a{fill:#202423;}.b{fill:none;stroke:#49ccd7;stroke-miterlimit:10;stroke-width:3px;}.c{fill:#49ccd7;}.d{fill:#fa4c84;}</style></defs><g transform="translate(-815.111 -1188.199)"><g transform="translate(813.514 -757.897)"><path class="a" d="M251.4,2020.7h-.051l-33.511-.426a4,4,0,0,1,.049-8h.052l29.41.374-.37-29.413a4,4,0,0,1,4-4.051h.052l29.4.379-.365-29.419a4,4,0,0,1,1.17-2.878,3.888,3.888,0,0,1,2.878-1.172l33.533.406a4,4,0,0,1-.048,8h-.049l-29.434-.357.366,29.423a4.007,4.007,0,0,1-1.172,2.879,3.957,3.957,0,0,1-2.88,1.171l-29.4-.379.371,29.412a4,4,0,0,1-4,4.051Z"/></g><circle class="b" cx="53.656" cy="53.656" r="53.656" transform="translate(877.201 1351.171) rotate(-124)"/><circle class="c" cx="53.656" cy="53.656" r="53.656" transform="translate(920.883 1389.462) rotate(-125)"/><circle class="d" cx="26.383" cy="26.383" r="26.383" transform="translate(1074.028 1323.335) rotate(-15.538)"/></g></svg>