<svg xmlns="http://www.w3.org/2000/svg" xmlns:xlink="http://www.w3.org/1999/xlink" width="442.313" height="433.297" viewBox="0 0 442.313 433.297"><defs><style>.a{fill:#ebebeb;}.b{fill:#f5f5f5;}.c,.e{fill:#e0e0e0;}.d{fill:#e6e6e6;}.e{opacity:0.5;}.f{fill:#ffbe9d;}.g{fill:#09c6f9;}.h{fill:#5c6375;}.i{fill:#fff;}.j{fill:url(#a);}.k{fill:#eb996e;}</style><linearGradient id="a" x1="0.5" x2="0.435" y2="1.522" gradientUnits="objectBoundingBox"><stop offset="0" stop-color="#09c6f9"/><stop offset="1" stop-color="#045de9"/></linearGradient></defs><g transform="translate(-1066.131 -976.437)"><g transform="translate(1057.082 973.001)"><g transform="translate(0 0)"><rect class="a" width="17.989" height="0.272" transform="translate(399.339 436.461)"/><rect class="b" width="23.421" height="415.406" transform="translate(226.387 3.436)"/><rect class="c" width="3.292" height="415.406" transform="translate(253.1 418.842) rotate(180)"/><path class="d" d="M148.981,344.973H25.5A13.753,13.753,0,0,1,39.264,331.22H148.981Z" transform="translate(-16.451 32.024)"/><path class="c" d="M151.787,344.973H97.83a13.753,13.753,0,0,1,13.764-13.753h40.193Z" transform="translate(-19.257 32.024)"/><path class="d" d="M228.4,344.973H104.92a13.753,13.753,0,0,1,13.764-13.753H228.4Z" transform="translate(-18.645 32.024)"/><path class="c" d="M231.207,344.973H177.25a13.753,13.753,0,0,1,13.764-13.753h40.193Z" transform="translate(-12.402 32.024)"/><path class="d" d="M389.814,344.973H266.29A13.753,13.753,0,0,1,280.1,331.22H389.814Z" transform="translate(-4.717 32.024)"/><path class="c" d="M392.577,344.973H338.62a13.753,13.753,0,0,1,13.764-13.753h40.193Z" transform="translate(1.526 32.024)"/><g transform="translate(272.151 202.592)"><path class="a" d="M432.765,304.33H378.08l7.7,84.808h39.281Z" transform="translate(-378.08 -172.888)"/><path class="a" d="M402.757,328.257c-1-35.088,7.2-107.73,21.878-137.277l.967.478c-14.122,28.374-22.812,101.385-21.726,136.767Z" transform="translate(-375.957 -182.672)"/><path class="a" d="M409.241,257.287s-3.6-33.969-16.87-44.387C385.255,234.344,399.833,241.731,409.241,257.287Z" transform="translate(-377.01 -180.78)"/><path class="a" d="M409.285,257.872a.554.554,0,0,1-.467-.261,98.8,98.8,0,0,0-7.952-10.885c-7.68-9.57-14.318-17.848-8.973-33.947a.543.543,0,0,1,.358-.348.532.532,0,0,1,.489.087c13.307,10.45,16.925,43.366,17.066,44.767a.521.521,0,0,1-.358.565Zm-16.6-44.006c-4.7,15.045,1.673,23,9.038,32.177,2.249,2.8,4.563,5.681,6.7,8.93C407.384,247.194,403.148,222.828,392.687,213.866Z" transform="translate(-377.055 -180.823)"/><path class="a" d="M409.56,244.845s14.122-31.405,30.026-36.935C439.368,230.473,423.5,233.178,409.56,244.845Z" transform="translate(-375.363 -181.211)"/><path class="a" d="M409.6,245.434a.532.532,0,0,1-.489-.76c.576-1.293,14.361-31.688,30.33-37.261a.543.543,0,0,1,.5.065.565.565,0,0,1,.228.445c-.152,17.153-9.147,23.019-19.554,29.8a108.613,108.613,0,0,0-10.635,7.6.619.619,0,0,1-.38.109Zm29.472-36.717c-12.84,5.149-24.507,27.245-27.951,34.262,2.966-2.3,5.964-4.258,8.886-6.159C430,230.3,438.651,224.674,439.075,208.716Z" transform="translate(-375.406 -181.257)"/><path class="a" d="M405.446,302.517s-5.432-47.255-21.922-59.747C375.268,269.2,393.595,283.68,405.446,302.517Z" transform="translate(-377.789 -178.202)"/><path class="a" d="M405.5,303.231a.652.652,0,0,1-.565-.3c-2.531-4.03-5.432-7.908-8.18-11.656-10.494-14.187-20.4-27.571-13.818-48.634a.663.663,0,0,1,.435-.435.684.684,0,0,1,.608.109c16.512,12.5,21.954,58.237,22.182,60.182a.674.674,0,0,1-.445.706A.749.749,0,0,1,405.5,303.231Zm-21.574-59.258c-5.8,19.88,3.77,32.818,13.894,46.505,2.173,3,4.5,6.072,6.626,9.255C402.97,289.468,397.115,255.021,383.927,243.973Z" transform="translate(-377.844 -178.253)"/><path class="a" d="M405.29,277.564s18.37-33.676,37.76-40.824C443.3,264.408,422.1,262.974,405.29,277.564Z" transform="translate(-375.732 -178.722)"/><path class="a" d="M405.343,278.279a.641.641,0,0,1-.424-.152.663.663,0,0,1-.163-.836c.75-1.38,18.717-33.958,38.119-41.117a.674.674,0,0,1,.9.619c.174,19.434-10.048,24.822-21.878,31.058-5.377,2.835-10.928,5.757-16.121,10.266a.673.673,0,0,1-.434.163Zm37.1-40.509c-15.154,6.257-29.732,28.755-34.762,37.054a95.6,95.6,0,0,1,13.557-8.147c11.287-5.931,21.02-11.07,21.2-28.907Z" transform="translate(-375.785 -178.775)"/><path class="a" d="M414.29,224.59s-2.5-23.692-11.765-30.96C397.56,208.588,407.728,213.748,414.29,224.59Z" transform="translate(-376.084 -182.443)"/><path class="a" d="M414.32,225a.369.369,0,0,1-.315-.185,71.28,71.28,0,0,0-5.54-7.6c-5.366-6.681-9.994-12.449-6.268-23.682a.379.379,0,0,1,.6-.185c9.277,7.289,11.808,30.254,11.949,31.231a.369.369,0,0,1-.25.391A.272.272,0,0,1,414.32,225Zm-11.569-30.7c-3.259,10.5,1.162,16.045,6.3,22.443,1.575,1.955,3.183,3.976,4.682,6.235C412.962,217.56,410.04,200.581,402.751,194.3Z" transform="translate(-376.115 -182.475)"/><path class="a" d="M417.22,209.489s9.777-21.9,20.944-25.789C438.023,199.462,426.942,201.407,417.22,209.489Z" transform="translate(-374.702 -183.3)"/><path class="a" d="M417.25,209.9a.359.359,0,0,1-.228-.076.391.391,0,0,1-.119-.456c.413-.9,10.027-22.1,21.161-26a.391.391,0,0,1,.348,0,.358.358,0,0,1,.163.315c-.109,11.949-6.388,16.045-13.655,20.781a74.553,74.553,0,0,0-7.42,5.29A.369.369,0,0,1,417.25,209.9ZM437.8,184.286c-8.951,3.6-17.1,19.01-19.5,23.9,2.075-1.608,4.171-2.966,6.2-4.345,6.974-4.486,13.014-8.419,13.3-19.554Z" transform="translate(-374.732 -183.332)"/></g><path class="b" d="M164.128,196.194c-10.331-.728-14.8.478-19.26-8.81s-20.042-14.274-25.1-6.17-6.887,13.731-18.6,8.929S85.6,188.829,83.9,195.227s-28.483,3.313-20.64,12.46h99.224S174.5,196.922,164.128,196.194Z" transform="translate(-22.365 18.725)"/><path class="b" d="M443.4,149.857c-5.844-.413-8.365.272-10.863-4.986s-11.341-8.082-14.209-3.5-3.889,7.778-10.516,5.051-8.81-.739-9.777,2.879-16.121,1.879-11.678,7.05h56.173S449.241,150.227,443.4,149.857Z" transform="translate(5.576 15.439)"/><path class="b" d="M380.828,33.189c-2.9-4.715-11.189-6.279-18.6-2.618S359.863,11.289,346,15.135c-19.793,5.5-14.285,21.911-22.53,20.412s-32.426,2.52-19.641,10.722h73.163S383.718,37.893,380.828,33.189Z" transform="translate(-1.793 4.705)"/><g transform="translate(313.659 89.304)"><path class="c" d="M327.742,111.03l-8.832-5.279,5.138-1.01,13.688,2.716Z" transform="translate(-313.835 -80.264)"/><path class="c" d="M384.134,96.788,373.39,83.3l3.976-.771a17.1,17.1,0,0,1,9.614.9l20.749,8.332Z" transform="translate(-309.132 -82.209)"/><path class="b" d="M444.583,86.847l-3.194-.793a20.477,20.477,0,0,0-9.462-.228l-105.209,23.9-.989,4.53,4.106,2.933L436.295,96.341a20.456,20.456,0,0,0,9.429-4.584,2.792,2.792,0,0,0-1.141-4.91Z" transform="translate(-313.246 -81.935)"/><rect class="b" width="47.092" height="0.576" transform="matrix(0.978, -0.208, 0.208, 0.978, 20.94, 47.71)"/><rect class="b" width="30.688" height="0.576" transform="matrix(0.978, -0.208, 0.208, 0.978, 31.027, 14.702)"/><rect class="b" width="12.612" height="0.576" transform="matrix(0.978, -0.208, 0.208, 0.978, 0, 52.169)"/><path class="c" d="M433.429,93.786l-103.971,22.15a4.205,4.205,0,0,0-1.358.521,4.562,4.562,0,0,0,1.532-.054L436.09,95.567a20.639,20.639,0,0,0,5.019-1.684l.391-.185A20.292,20.292,0,0,0,433.429,93.786Z" transform="translate(-313.041 -81.248)"/><path class="c" d="M325.942,112.034,323.27,123.32l5.138-1.01,9.353-12.21Z" transform="translate(-313.458 -79.801)"/><path class="c" d="M327.135,108.682,320.9,97.4l4.791-.945,13.829,9.809Z" transform="translate(-313.663 -80.979)"/><path class="c" d="M384.277,100.4l-1.727,32.589h0a17.033,17.033,0,0,0,11.624-8.451l16.24-29.233Z" transform="translate(-308.342 -81.078)"/><g transform="translate(47.604 11.913)"><rect class="c" width="1.336" height="2.444" transform="translate(0 11.645) rotate(-11.59)"/><rect class="c" width="1.336" height="2.444" transform="matrix(0.98, -0.201, 0.201, 0.98, 2.647, 11.141)"/><rect class="c" width="1.336" height="2.444" transform="matrix(0.98, -0.201, 0.201, 0.98, 5.298, 10.598)"/><rect class="c" width="1.336" height="2.444" transform="matrix(0.98, -0.201, 0.201, 0.98, 7.948, 10.055)"/><rect class="c" width="1.336" height="2.444" transform="matrix(0.98, -0.201, 0.201, 0.98, 10.599, 9.512)"/><rect class="c" width="1.336" height="2.444" transform="matrix(0.98, -0.201, 0.201, 0.98, 13.249, 8.969)"/><rect class="c" width="1.336" height="2.444" transform="matrix(0.98, -0.201, 0.201, 0.98, 15.911, 8.425)"/><rect class="c" width="1.336" height="2.444" transform="translate(18.563 7.841) rotate(-11.59)"/><rect class="c" width="1.336" height="2.444" transform="matrix(0.98, -0.201, 0.201, 0.98, 21.212, 7.339)"/><rect class="c" width="1.336" height="2.444" transform="matrix(0.98, -0.201, 0.201, 0.98, 23.86, 6.786)"/><rect class="c" width="1.347" height="2.444" transform="matrix(0.98, -0.201, 0.201, 0.98, 26.511, 6.232)"/><rect class="c" width="1.336" height="2.444" transform="matrix(0.98, -0.201, 0.201, 0.98, 29.161, 5.7)"/><rect class="c" width="1.336" height="2.444" transform="translate(31.813 5.114) rotate(-11.59)"/><rect class="c" width="1.347" height="2.444" transform="matrix(0.98, -0.201, 0.201, 0.98, 34.473, 4.602)"/><rect class="c" width="1.347" height="2.444" transform="matrix(0.98, -0.201, 0.201, 0.98, 37.124, 4.07)"/><rect class="c" width="1.336" height="2.444" transform="matrix(0.98, -0.201, 0.201, 0.98, 39.774, 3.527)"/><rect class="c" width="1.347" height="2.444" transform="matrix(0.98, -0.201, 0.201, 0.98, 42.425, 2.973)"/><rect class="c" width="1.347" height="2.444" transform="matrix(0.98, -0.201, 0.201, 0.98, 45.075, 2.441)"/><rect class="c" width="1.336" height="2.444" transform="matrix(0.98, -0.201, 0.201, 0.98, 47.726, 1.899)"/><rect class="c" width="1.336" height="2.444" transform="translate(50.387 1.307) rotate(-11.59)"/><rect class="c" width="1.347" height="2.444" transform="matrix(0.98, -0.201, 0.201, 0.98, 53.038, 0.811)"/><rect class="c" width="1.336" height="2.444" transform="matrix(0.98, -0.201, 0.201, 0.98, 55.699, 0.268)"/></g><path class="e" d="M435.949,86.816l-3.194-.793c-.424-.109-.858-.217-1.3-.293l-4.7.912a1.218,1.218,0,1,0,.467,2.39l9.473-1.923a2.781,2.781,0,0,0-.739-.293Z" transform="translate(-304.612 -81.905)"/></g></g></g><g transform="translate(1246.803 1072.216) rotate(-3)"><path class="f" d="M0,73.4C0,72.2,50.741,0,50.741,0L78.77,10.744,14.827,84.425Z" transform="matrix(0.998, 0.07, -0.07, 0.998, 84.386, 204.566)"/><path class="g" d="M19.9,0l-.457.591-8.7,11.349L0,19.34,14.451,47.168h15.9s-1.155-3.814-8.8-5.8l-.51-15.27L34.785,11" transform="matrix(0.998, 0.07, -0.07, 0.998, 59.41, 276.397)"/><g transform="matrix(0.998, 0.07, -0.07, 0.998, 58.116, 294.132)"><path class="h" d="M0,1.571,14.451,29.4l15.9.013-1.786-2.391L15.633,26.3,2.3,0Z"/></g><path class="h" d="M4.524,1.021C4.416,1.182,3.49.658,2.267.7S.132,1.249.011,1.088.763.014,2.254,0,4.672.9,4.524,1.021Z" transform="matrix(0.998, 0.07, -0.07, 0.998, 73.912, 310.867)"/><path class="h" d="M4.551,1.817C4.39,1.938,3.678,1,2.416.742S.133,1.078.025.917.16.568.6.326a2.983,2.983,0,0,1,3.64.739C4.551,1.454,4.619,1.777,4.551,1.817Z" transform="matrix(0.998, 0.07, -0.07, 0.998, 73.963, 306.276)"/><path class="h" d="M4.031,2.037C3.856,2.118,3.306,1.2,2.2.815S.1.815.015.614s.161-.3.6-.457a2.694,2.694,0,0,1,1.813,0A2.809,2.809,0,0,1,3.856,1.3C4.085,1.661,4.112,2,4.031,2.037Z" transform="matrix(0.998, 0.07, -0.07, 0.998, 74.944, 301.25)"/><path class="h" d="M3.613,2.6c-.188,0-.645-.833-1.625-1.477S.014.387,0,.2,1.182-.258,2.377.548,3.8,2.589,3.613,2.6Z" transform="matrix(0.998, 0.07, -0.07, 0.998, 79.911, 297.247)"/><path class="h" d="M3.474,6.385A7.647,7.647,0,0,1,2.131,4.72L.788,2.812A5.177,5.177,0,0,1,.049,1.469,1.348,1.348,0,0,1,.144.5a.993.993,0,0,1,.967-.5A2.937,2.937,0,0,1,2.588.771a5.321,5.321,0,0,1,.967,1.1,5.464,5.464,0,0,1,.833,2.3,2.923,2.923,0,0,1-.363,2.176A15.606,15.606,0,0,0,3.9,4.25,5.152,5.152,0,0,0,2.158,1.295,2.531,2.531,0,0,0,1.057.7a.269.269,0,0,0-.3.134.652.652,0,0,0,0,.457,5.8,5.8,0,0,0,.618,1.1L2.6,4.4A6.709,6.709,0,0,1,3.474,6.385Z" transform="matrix(0.998, 0.07, -0.07, 0.998, 82.607, 290.319)"/><path class="h" d="M.135,3.058c-.081,0,0-.833.846-1.786A4.03,4.03,0,0,1,5.7.412.764.764,0,0,1,5.937.99a.794.794,0,0,1-.188.5A2.409,2.409,0,0,1,5.171,2a6.248,6.248,0,0,1-1.115.631,6.713,6.713,0,0,1-2.1.591C.726,3.354-.026,3.112,0,3.031s.752,0,1.88-.309a7.527,7.527,0,0,0,1.894-.672,8.222,8.222,0,0,0,1.007-.618,1.55,1.55,0,0,0,.4-.363c.081-.134,0-.094,0-.134a1.553,1.553,0,0,0-.47-.175A4.2,4.2,0,0,0,4.124.668,4.415,4.415,0,0,0,3,.748a4.033,4.033,0,0,0-1.719.873C.471,2.373.242,3.112.135,3.058Z" transform="matrix(0.998, 0.07, -0.07, 0.998, 86.246, 294.433)"/><g transform="matrix(0.998, 0.07, -0.07, 0.998, 67.08, 293.978)"><circle class="i" cx="1.88" cy="1.88" r="1.88"/></g><path class="f" d="M11.519,0l-.443,3.237L2.923,7.266a4.137,4.137,0,0,0-2.9,4.378l.537,5.1A4.648,4.648,0,0,0,3.93,20.777l12.343,3.492a2.308,2.308,0,0,0,2.851-1.593l.009-.032h0a2.3,2.3,0,0,0-1.343-2.686L8.309,16.117h0a3.425,3.425,0,0,1,2.431-3.8L19.5,9.724l1.088,6.715A2.511,2.511,0,0,0,23.042,18.6a1.155,1.155,0,0,0,1.246-1.056,1.218,1.218,0,0,0,0-.14c.188-2.3,1.021-15,1.021-15Z" transform="matrix(0.998, 0.07, -0.07, 0.998, 70.289, 119.165)"/><path class="h" d="M13.177,4.885A6.715,6.715,0,1,1,4.884.256L4.9.251A6.715,6.715,0,0,1,13.177,4.885Z" transform="matrix(0.998, 0.07, -0.07, 0.998, 16.512, 308.002)"/><path class="h" d="M2.122,9.939,5.05,1.074,2.767,0,0,9.227Z" transform="matrix(0.998, 0.07, -0.07, 0.998, 22.738, 305.054)"/><path class="h" d="M0,68.738,16.4,0l5.077,1.759L5.762,69.8Z" transform="matrix(0.998, 0.07, -0.07, 0.998, 60.206, 140.836)"/><path class="j" d="M46.961.6l6.122,1.539A19.636,19.636,0,0,1,67.336,25.97l-23.017,91.5a3.707,3.707,0,0,1-4.5,2.69h0L2.8,110.848a3.707,3.707,0,0,1-2.69-4.5h0l23.016-91.5A19.636,19.636,0,0,1,46.961.6Z" transform="matrix(0.998, 0.07, -0.07, 0.998, 8.39, 189.517)"/><path class="h" d="M0,25.169l5.292,1.383,6.272-24.9L5.869,0Z" transform="matrix(0.998, 0.07, -0.07, 0.998, 72.896, 134.17)"/><path class="i" d="M21.637,110.659a2.252,2.252,0,0,1,.121-.591c.121-.39.228-.994.389-1.733.376-1.531.9-3.761,1.585-6.621,1.343-5.775,3.411-14.075,5.909-24.336s5.507-22.51,8.837-36.075c1.665-6.8,3.411-13.914,5.238-21.3.457-1.853.913-3.707,1.343-5.587a11.15,11.15,0,0,0,0-5.641,10.839,10.839,0,0,0-18.494-4.58,11.14,11.14,0,0,0-2.592,5.023c-.47,1.88-.927,3.734-1.343,5.587L17.366,36.092c-3.371,13.565-6.42,25.787-8.972,36.048S3.761,90.674,2.31,96.436L.631,103.03c-.2.739-.349,1.343-.457,1.719s-.175.578-.175.578a2.252,2.252,0,0,1,.121-.591c.121-.389.228-.994.39-1.733.376-1.531.9-3.761,1.585-6.621C3.438,90.607,5.507,82.307,8,72.046s5.507-22.5,8.837-36.075c1.665-6.8,3.425-13.914,5.238-21.3q.685-2.78,1.343-5.6A11.735,11.735,0,0,1,26.109,3.8,11.429,11.429,0,0,1,45.7,8.626a11.8,11.8,0,0,1,0,5.923c-.47,1.88-.927,3.747-1.343,5.587-1.827,7.387-3.586,14.505-5.278,21.287-3.358,13.565-6.406,25.787-8.945,36.048s-4.647,18.534-6.1,24.3l-1.679,6.594c-.2.739-.349,1.343-.457,1.719A1.771,1.771,0,0,1,21.637,110.659Z" transform="matrix(0.998, 0.07, -0.07, 0.998, 30.334, 199.315)"/><path class="i" d="M22.6,6.627c0,.255-5.144-1.007-11.376-2.834S-.04.288,0,.033,5.144,1.04,11.389,2.867,22.658,6.372,22.6,6.627Z" transform="matrix(0.998, 0.07, -0.07, 0.998, 20.407, 236.532)"/><path class="k" d="M6.142,14.035a7.374,7.374,0,0,1-2.592-.806,7.82,7.82,0,0,1-1.222-.658,2.185,2.185,0,0,1-.645-.591,5.054,5.054,0,0,1-.376-.766A16.514,16.514,0,0,1,.582,7.655C.408,6.42.26,5.251.1,4.123A6.48,6.48,0,0,1,.018,2.512a1.66,1.66,0,0,1,.255-.792,2.592,2.592,0,0,1,.5-.51A4.762,4.762,0,0,1,3.215,0c0,.094-.913.51-2.109,1.585a1.943,1.943,0,0,0-.389.43A1.342,1.342,0,0,0,.6,2.565,6.734,6.734,0,0,0,.743,4.043c.161,1.115.336,2.283.524,3.519a19.393,19.393,0,0,0,.645,3.425,3.376,3.376,0,0,0,.309.672,1.738,1.738,0,0,0,.443.443,7.073,7.073,0,0,0,1.115.685A19.656,19.656,0,0,1,6.142,14.035Z" transform="matrix(0.998, 0.07, -0.07, 0.998, 71.358, 127.035)"/><path class="g" d="M4.024,114.671c-.913-8.058-1.236-39.392-1.236-39.392C1.647,60.667,1.1,44.738.237,34.141-2.7-1.745,22.72.014,22.72.014l9.066.121c10.744.806,18.8,8.058,20.374,18.078l20.75,94.524Z" transform="matrix(0.998, 0.07, -0.07, 0.998, 133.034, 0.093)"/><path class="g" d="M30.608,59.906,65.273,28.693S76.7,7.781,55.63.005c0,0,.215-.7-16.99,14.129C28.271,23.079,17.836,32.158,11.2,37.96A22.238,22.238,0,0,0,3.6,53.553L0,119.886l23.195,4.029Z" transform="matrix(0.998, 0.07, -0.07, 0.998, 88.647, 0)"/><path class="i" d="M6.93,6.594a34.346,34.346,0,0,0-2.995-3.8A33.215,33.215,0,0,0,0,0,8.917,8.917,0,0,1,6.93,6.594Z" transform="matrix(0.998, 0.07, -0.07, 0.998, 108.528, 55.128)"/><path class="i" d="M31.535,0a6.44,6.44,0,0,1-1.142,1.168l-3.3,2.968c-2.82,2.471-6.715,5.869-11.08,9.589s-8.327,7.038-11.215,9.4L1.343,25.921A7.656,7.656,0,0,1,0,26.875a6.441,6.441,0,0,1,1.142-1.168l3.317-2.968c2.807-2.471,6.639-5.989,10.991-9.7s8.39-6.931,11.291-9.282L30.192.954A7.606,7.606,0,0,1,31.535,0Z" transform="translate(117.065 34.845) rotate(3)"/><path class="h" d="M41.192.145,0,96.966,1.236,108.4,47.289,2.509A5.855,5.855,0,0,0,41.192.145Z" transform="matrix(0.998, 0.07, -0.07, 0.998, 135.094, 3.094)"/><path class="h" d="M15.42,0H10.3a7.723,7.723,0,0,0-7.7,7.239L.015,48.632a7.708,7.708,0,0,0,7.211,8.177,7.631,7.631,0,0,0,.928,0h0a7.708,7.708,0,0,0,7.266-7.7Z" transform="matrix(0.998, 0.07, -0.07, 0.998, 115.466, 98.925)"/><path class="i" d="M8.931,2.565c.067,0-.578,1.263-1.545,3.291-.5,1.007-1.074,2.2-1.759,3.532a5.659,5.659,0,0,1-1.5,1.934,2.4,2.4,0,0,1-2.686.3A3.171,3.171,0,0,1,.013,9.294,5.45,5.45,0,0,1,.4,6.863C.967,5.439,1.558,4.271,2.028,3.237A19.715,19.715,0,0,1,3.706,0,18.474,18.474,0,0,1,2.484,3.438c-.4,1.034-.967,2.283-1.464,3.64A4.831,4.831,0,0,0,.7,9.213a2.5,2.5,0,0,0,1.1,1.8,1.718,1.718,0,0,0,1.947-.228A5.023,5.023,0,0,0,5.09,9.079L6.984,5.627A12.64,12.64,0,0,1,8.931,2.565Z" transform="matrix(0.998, 0.07, -0.07, 0.998, 124.727, 99.181)"/><path class="i" d="M5.641,0a8.525,8.525,0,0,1,.121,1.867v5.1c0,4.311,0,10.261-.094,16.842,0,3.277-.094,6.406-.148,9.267a25.015,25.015,0,0,1-.833,7.575,8.247,8.247,0,0,1-2.968,4.2A5.23,5.23,0,0,1,.483,45.5,1.506,1.506,0,0,1,0,45.624a16.706,16.706,0,0,0,1.558-.994,8.246,8.246,0,0,0,2.686-4.123A25.922,25.922,0,0,0,4.9,33.079c0-2.874,0-5.99.094-9.281.081-6.568.188-12.517.309-16.829.067-2.055.121-3.761.161-5.1A11.6,11.6,0,0,1,5.641,0Z" transform="matrix(0.998, 0.07, -0.07, 0.998, 120.728, 110.158)"/><path class="i" d="M2.552,1.262A1.276,1.276,0,1,1,1.263,0h.027A1.263,1.263,0,0,1,2.552,1.262Z" transform="matrix(0.998, 0.07, -0.07, 0.998, 126.263, 105.711)"/><path class="h" d="M45.53,1.934,48.646,102.6,0,170.461l26.337,16.923,57.832-70.094a19.474,19.474,0,0,0,4.472-12.531L88.145,0Z" transform="matrix(0.998, 0.07, -0.07, 0.998, 83.765, 109.66)"/><path class="i" d="M9.281,0a3.519,3.519,0,0,1,.363.86,12.208,12.208,0,0,1,.483,2.512,15.652,15.652,0,0,1-1.571,8.219,15.986,15.986,0,0,1-5.439,6.366A8.588,8.588,0,0,1,0,19.488c0-.107,1.155-.645,2.82-1.921a17.455,17.455,0,0,0,5.1-6.272A16.64,16.64,0,0,0,9.63,3.4C9.576,1.3,9.16.027,9.281,0Z" transform="matrix(0.998, 0.07, -0.07, 0.998, 135.76, 114.494)"/><path class="i" d="M58.88,0a2.957,2.957,0,0,1,0,.51c0,.363.067.86.121,1.477.081,1.343.215,3.264.363,5.721.309,4.956.725,12.088,1.115,21.019s.712,19.461.645,31.226c0,5.869-.188,12.088-.457,18.44s-.524,13.068-2.377,19.676-5.654,12.289-9.4,17.46-7.629,9.979-11.241,14.626c-7.2,9.281-13.78,17.567-19.353,24.5S8.166,167.144,5,170.971l-3.68,4.392-.967,1.128a2.805,2.805,0,0,1-.349.376,4.105,4.105,0,0,1,.3-.416l.913-1.182L4.781,170.8c3.129-3.908,7.6-9.522,13.122-16.452S29.99,139.06,37.136,129.766l11.2-14.639c3.8-5.1,7.561-10.664,9.334-17.178S59.78,84.8,60.048,78.421s.443-12.544.5-18.413c.107-11.738-.161-22.322-.5-31.2s-.672-16.023-.886-21.019c-.107-2.458-.175-4.378-.242-5.721V.577A2.969,2.969,0,0,1,58.88,0Z" transform="matrix(0.998, 0.07, -0.07, 0.998, 98.237, 111.601)"/></g></g></svg>