<svg xmlns="http://www.w3.org/2000/svg" width="243.838" height="202.781" viewBox="0 0 243.838 202.781"><defs><style>.a{fill:#223345;stroke:#fff;stroke-width:0.5px;}.b{fill:#fff;font-size:17px;font-family:Assistant-Regular, Assistant;letter-spacing:0.03em;}.c{fill:#38c5cf;stroke:#38c5cf;}.c,.d,.e,.f{stroke-miterlimit:10;stroke-width:5px;}.d{fill:#83ce65;stroke:#83ce65;}.e{fill:#f68080;stroke:#f68080;}.f{fill:#bf8afc;stroke:#bf8afc;}</style></defs><g transform="translate(-107.874 -4052.159)"><g transform="translate(110.374 4054.659)"><g transform="translate(193.386)"><g transform="translate(0)"><path class="a" d="M1.6,3A3.258,3.258,0,0,0-1.651,6.256V25.79c0,1.8.056.746,0,8.692L5.083,29.5H42.8a3.258,3.258,0,0,0,3.256-3.256V6.706A3.258,3.258,0,0,0,42.8,3.451Z" transform="translate(1.651 -3)"/></g><text class="b" transform="translate(10.367 17.641)"><tspan x="0" y="0">500</tspan></text></g><path class="c" d="M29.057,95.831A99.584,99.584,0,0,1,13.28,75.291h0A98.906,98.906,0,0,1,0,25.681,99.322,99.322,0,0,1,3.363,0L17.284,3.731A84.883,84.883,0,0,0,56.8,99.128L49.6,111.609A99.562,99.562,0,0,1,29.057,95.831Z" transform="translate(0 72.893)"/><path class="d" d="M49.609,62.846a84.931,84.931,0,0,0,21.952-2.874A84.3,84.3,0,0,0,92.014,51.5l7.206,12.48a98.588,98.588,0,0,1-23.928,9.916l-3.731-13.92,3.73,13.92a99.309,99.309,0,0,1-25.682,3.363ZM23.929,73.892A98.575,98.575,0,0,1,0,63.976L7.206,51.5a84.3,84.3,0,0,0,20.453,8.476l-3.729,13.92,3.731-13.92a84.911,84.911,0,0,0,21.949,2.874V77.255A99.307,99.307,0,0,1,23.929,73.892ZM92.014,51.5A85.111,85.111,0,0,0,109.571,38.01L119.759,48.2A99.532,99.532,0,0,1,99.22,63.976ZM109.571,38.01a85.122,85.122,0,0,0,13.485-17.556l12.481,7.2A99.549,99.549,0,0,1,119.759,48.2Zm13.486-17.556A84.237,84.237,0,0,0,131.532,0l13.921,3.73a98.586,98.586,0,0,1-9.915,23.929Z" transform="translate(48.964 120.526)"/><path class="e" d="M81.923,121.158A84.916,84.916,0,0,0,84.8,99.207H99.208a99.3,99.3,0,0,1-3.365,25.68ZM84.8,99.207a84.915,84.915,0,0,0-2.875-21.951l13.92-3.731a99.3,99.3,0,0,1,3.365,25.681ZM73.447,56.8,85.928,49.6a98.608,98.608,0,0,1,9.915,23.929l-13.92,3.731A84.229,84.229,0,0,0,73.447,56.8ZM59.961,39.245A85.068,85.068,0,0,0,42.4,25.759a84.275,84.275,0,0,0-20.454-8.475A84.856,84.856,0,0,0,0,14.409V0A99.3,99.3,0,0,1,25.682,3.364,98.549,98.549,0,0,1,49.609,13.28l-7.2,12.48,7.206-12.48A99.6,99.6,0,0,1,70.15,29.056h0A99.68,99.68,0,0,1,85.928,49.6L73.447,56.8A85.126,85.126,0,0,0,59.961,39.245Z" transform="translate(98.574 0)"/><path class="f" d="M0,73.526A98.6,98.6,0,0,1,9.917,49.6L22.4,56.8A84.286,84.286,0,0,0,13.92,77.256ZM9.917,49.6A99.578,99.578,0,0,1,46.234,13.28,98.557,98.557,0,0,1,70.162,3.364l3.73,13.92a84.3,84.3,0,0,0-20.454,8.475A85.136,85.136,0,0,0,22.4,56.8ZM70.162,3.364A99.3,99.3,0,0,1,95.843,0V14.409a84.856,84.856,0,0,0-21.951,2.875Z" transform="translate(3.364 0)"/><path class="e" d="M81.923,121.158A84.916,84.916,0,0,0,84.8,99.207H99.208a99.3,99.3,0,0,1-3.365,25.68ZM84.8,99.207a84.915,84.915,0,0,0-2.875-21.951l13.92-3.731a99.3,99.3,0,0,1,3.365,25.681ZM73.447,56.8,85.928,49.6a98.608,98.608,0,0,1,9.915,23.929l-13.92,3.731A84.229,84.229,0,0,0,73.447,56.8ZM59.961,39.245A85.068,85.068,0,0,0,42.4,25.759a84.275,84.275,0,0,0-20.454-8.475A84.856,84.856,0,0,0,0,14.409V0A99.3,99.3,0,0,1,25.682,3.364,98.549,98.549,0,0,1,49.609,13.28l-7.2,12.48,7.206-12.48A99.6,99.6,0,0,1,70.15,29.056h0A99.68,99.68,0,0,1,85.928,49.6L73.447,56.8A85.126,85.126,0,0,0,59.961,39.245Z" transform="translate(98.574 0)"/></g></g></svg>