<svg xmlns="http://www.w3.org/2000/svg" xmlns:xlink="http://www.w3.org/1999/xlink" width="543" height="376" viewBox="0 0 543 376"><defs><style>.a,.m,.n,.o{fill:#fff;}.b,.i,.j,.l{fill:none;}.c,.d,.k{fill:#223345;}.c{font-size:10px;}.c,.k{font-family:Assistant-SemiBold, Assistant;font-weight:600;}.d,.p{font-size:8px;}.d,.e,.f,.p{font-family:Assistant-Regular, Assistant;}.e,.f,.p,.q{fill:#707070;}.e{font-size:6px;}.f{font-size:7px;}.g{fill:#38c5cf;}.h{fill:#f68080;}.i,.m{stroke:#38c5cf;}.i,.j{stroke-linecap:round;}.i,.j,.l{stroke-width:2px;}.j,.n{stroke:#f68080;}.k{font-size:12px;}.l{stroke:#223345;}.m,.n{stroke-width:3px;}.o{stroke:#707070;}.q{fill-rule:evenodd;}.r{stroke:none;}.s{filter:url(#a);}</style><filter id="a" x="0" y="0" width="543" height="376" filterUnits="userSpaceOnUse"><feOffset dx="5" dy="7" input="SourceAlpha"/><feGaussianBlur stdDeviation="20.5" result="b"/><feFlood flood-opacity="0.161"/><feComposite operator="in" in2="b"/><feComposite in="SourceGraphic"/></filter></defs><g transform="translate(56.5 54.759)"><g class="s" transform="matrix(1, 0, 0, 1, -56.5, -54.76)"><rect class="a" width="420" height="253" rx="10" transform="translate(56.5 54.5)"/></g><path class="b" d="M650.421,919.052V795l-77.368,74.561V918.95Z" transform="translate(-339.132 -695.616)"/><text class="c" transform="translate(9 23.741)"><tspan x="0" y="0">Earnings</tspan></text><text class="d" transform="translate(9 134.742)"><tspan x="0" y="0">3k</tspan></text><text class="d" transform="translate(9 107.742)"><tspan x="0" y="0">4k</tspan></text><text class="d" transform="translate(9 78.742)"><tspan x="0" y="0">5k</tspan></text><text class="d" transform="translate(9 49.741)"><tspan x="0" y="0">6k</tspan></text><text class="d" transform="translate(9 162.742)"><tspan x="0" y="0">2k</tspan></text><text class="d" transform="translate(9 192.742)"><tspan x="0" y="0">1k</tspan></text><text class="d" transform="translate(9 219.742)"><tspan x="0" y="0">0k</tspan></text><text class="e" transform="translate(26 233.742)"><tspan x="0" y="0">Jan</tspan></text><text class="e" transform="translate(230 233.742)"><tspan x="0" y="0">Jul</tspan></text><text class="e" transform="translate(59 233.742)"><tspan x="0" y="0">Feb</tspan></text><text class="e" transform="translate(262 233.742)"><tspan x="0" y="0">Aug</tspan></text><text class="e" transform="translate(93 233.742)"><tspan x="0" y="0">Mar</tspan></text><text class="e" transform="translate(298 233.742)"><tspan x="0" y="0">Sep</tspan></text><text class="e" transform="translate(127 233.742)"><tspan x="0" y="0">Apr</tspan></text><text class="e" transform="translate(331 233.742)"><tspan x="0" y="0">Oct</tspan></text><text class="e" transform="translate(162 233.742)"><tspan x="0" y="0">May</tspan></text><text class="e" transform="translate(365 233.742)"><tspan x="0" y="0">Nov</tspan></text><text class="e" transform="translate(197 233.742)"><tspan x="0" y="0">Jun</tspan></text><text class="e" transform="translate(401 233.742)"><tspan x="0" y="0">Dec</tspan></text><g transform="translate(136.687 14.685)"><text class="f" transform="translate(12.313 9.056)"><tspan x="0" y="0">Current Year</tspan></text><rect class="g" width="7.022" height="7.05" rx="3.511" transform="translate(0 2.832)"/></g><g transform="translate(239.889 15.262)"><text class="f" transform="translate(12.637 8)"><tspan x="0" y="0">Last Year</tspan></text><path class="h" d="M3.525,0A3.525,3.525,0,1,1,0,3.525,3.525,3.525,0,0,1,3.525,0Z" transform="translate(0 2.256)"/></g><path class="i" d="M2647.78,3129.886s14.172-23.836,23.667-24.254,19.982-9.408,23.525-15.262,9.92-5.018,10.629,4.391-3.118,28.016,8.219,35.125,10.2,33.662,20.124,27.807,5.385-22.79,13.6-27.807,11.054-17.981,10.912-28.017,15.589-24.879,27.352-7.108,14.03-2.718,14.171,18.608,5.527,23.835,18,27.808,6.377,23.416,16.865,16.517,23.808-18.4,25.367-27.807.992-19.026,11.9-26.135,10.062-31.989,20.691-14.426,19.557,4.809,23.667,20.908,3.4,37.216,17.006,36.8,13.321,10.872,22.25,1.046,6.8-12.754,18.848-20.072,9.637-38.052,22.25-25.3,18.139,38.679,33.87,26.762" transform="translate(-2619.935 -3009.821)"/><path class="j" d="M2647.78,3102.908s14.172-12.692,23.667-12.915,19.982-5.01,23.525-8.127,9.92-2.672,10.629,2.338,2.068,45.931,9.44,27.731,2.75,15.328,12.671,12.21,6.294-18.566,14.514-21.238.768-3.28,16.235-14.919,11.68-4.444,23.441,5.019,17.94-10.251,18.082,1.1,2.37,39.248,11.585,20.818,14.394,20.721,24.881,17.048,22.205-24.061,23.764-29.07.992-10.131,11.9-13.917c7.279-2.525,12.071-9.663,16-11.114,1.082-.4,7.523,2.76,8.724,3.817,10.629,9.352,10.559,25.633,19.629,10.748s5.432-20.831,19.037-21.054,11.291,46.437,20.219,41.2,6.8-6.792,18.848-10.688,9.637-20.262,22.25-13.471,18.139,20.6,33.87,14.25" transform="translate(-2619.935 -2953.083)"/><text class="k" transform="translate(263.267 61.661)"><tspan x="0" y="0">5k</tspan></text><line class="l" y1="147.448" transform="translate(268.368 77.117)"/><g class="m" transform="translate(263.575 68.94)"><ellipse class="r" cx="4.794" cy="4.794" rx="4.794" ry="4.794"/><ellipse class="b" cx="4.794" cy="4.794" rx="3.294" ry="3.294"/></g><g class="n" transform="translate(264 119.741)"><circle class="r" cx="5" cy="5" r="5"/><circle class="b" cx="5" cy="5" r="3.5"/></g><g transform="translate(369.483 13.511)"><g class="o" transform="translate(-0.482 0.23)"><rect class="r" width="42" height="14" rx="5"/><rect class="b" x="0.5" y="0.5" width="41" height="13" rx="4.5"/></g><text class="p" transform="translate(6.518 9.231)"><tspan x="0" y="0">Year</tspan></text><g transform="translate(27.747 6.343)"><path class="q" d="M10.265,17.014a.483.483,0,0,1,.684,0l2.557,2.559,2.558-2.559a.484.484,0,0,1,.684.684l-2.9,2.9a.483.483,0,0,1-.684,0l-2.9-2.9a.483.483,0,0,1,0-.684Z" transform="translate(-10.123 -16.872)"/></g></g></g></svg>