<svg xmlns="http://www.w3.org/2000/svg" xmlns:xlink="http://www.w3.org/1999/xlink" width="303" height="281" viewBox="0 0 303 281"><defs><style>.a,.h{fill:#fff;}.b,.c,.g{fill:#223345;}.b{font-size:10px;font-family:Assistant-SemiBold, Assistant;font-weight:600;}.c{font-size:8px;}.c,.f,.h{font-family:Assistant-Regular, Assistant;}.d{fill:#eee;}.e{fill:#bf8afc;}.f,.i,.j{fill:#707070;}.f{font-size:6px;}.g{stroke:#fff;stroke-width:0.5px;}.h{font-size:5px;letter-spacing:0.03em;}.i{stroke:#707070;}.k{filter:url(#a);}</style><filter id="a" x="0" y="0" width="303" height="281" filterUnits="userSpaceOnUse"><feOffset dx="5" dy="7" input="SourceAlpha"/><feGaussianBlur stdDeviation="20.5" result="b"/><feFlood flood-opacity="0.161"/><feComposite operator="in" in2="b"/><feComposite in="SourceGraphic"/></filter></defs><g transform="translate(56.5 54.416)"><g class="k" transform="matrix(1, 0, 0, 1, -56.5, -54.42)"><rect class="a" width="180" height="158" rx="10" transform="translate(56.5 54.5)"/></g><text class="b" transform="translate(17 28.084)"><tspan x="0" y="0">Daily Sale</tspan></text><text class="c" transform="translate(17 51.084)"><tspan x="0" y="0">3k</tspan></text><text class="c" transform="translate(17 78.084)"><tspan x="0" y="0">2k</tspan></text><text class="c" transform="translate(17 108.084)"><tspan x="0" y="0">1k</tspan></text><text class="c" transform="translate(17 136.084)"><tspan x="0" y="0">0k</tspan></text><g transform="translate(43.636 41.594)"><rect class="d" width="9.587" height="94.593" rx="4.794"/><rect class="e" width="9.587" height="37.844" rx="4.794" transform="translate(0 56.749)"/><text class="f" transform="translate(0.364 104.49)"><tspan x="0" y="0">SU</tspan></text></g><g transform="translate(65.743 41.594)"><g transform="translate(0)"><rect class="d" width="9.587" height="94.593" rx="4.794"/><rect class="e" width="9.587" height="49.669" rx="4.794" transform="translate(0 44.924)"/></g><text class="f" transform="translate(0.257 104.49)"><tspan x="0" y="0">MO</tspan></text></g><g transform="translate(87.85 41.594)"><rect class="d" width="9.587" height="94.593" rx="4.794"/><rect class="e" width="9.587" height="88.107" rx="4.794" transform="translate(0 6.485)"/><text class="f" transform="translate(1.15 104.49)"><tspan x="0" y="0">TU</tspan></text></g><g transform="translate(109.846 41.594)"><g transform="translate(0.11)"><rect class="d" width="9.587" height="94.593" rx="4.794"/><rect class="e" width="9.587" height="67.433" rx="4.794" transform="translate(0 27.16)"/></g><text class="f" transform="translate(0.154 104.49)"><tspan x="0" y="0">WE</tspan></text></g><g transform="translate(132.063 41.594)"><rect class="d" width="9.587" height="94.593" rx="4.794"/><rect class="e" width="9.587" height="84.301" rx="4.794" transform="translate(0 10.292)"/><text class="f" transform="translate(0.938 104.49)"><tspan x="0" y="0">TH</tspan></text></g><g transform="translate(154.169 41.594)"><rect class="d" width="9.587" height="94.593" rx="4.794"/><rect class="e" width="9.587" height="49.669" rx="4.794" transform="translate(0 44.924)"/><text class="f" transform="translate(-0.169 104.49)"><tspan x="0" y="0">FR</tspan></text></g><g transform="translate(61.355 70.919)"><g transform="translate(0 0)"><path class="g" d="M-.4,3A1.254,1.254,0,0,0-1.651,4.253v7.519A1.254,1.254,0,0,0-.4,13.026H5.318l2.139,2.139L9.6,13.026l5.862.173a1.254,1.254,0,0,0,1.253-1.253V4.427a1.254,1.254,0,0,0-1.253-1.253Z" transform="translate(1.651 -3)"/></g><text class="h" transform="translate(4.681 6.326)"><tspan x="0" y="0">1.5k</tspan></text></g><g transform="translate(162.628 9.073)"><path class="i" d="M9.922,5.44,1.761,5.5l.209,6.254,8.041-.328Z" transform="translate(-1.402 -3.959)"/><path class="j" d="M9.7,3.866H8.043V2.813h-.6V3.866H3.832V2.813h-.6V3.866H1.576a.452.452,0,0,0-.451.451v6.316a.452.452,0,0,0,.451.451H9.7a.452.452,0,0,0,.451-.451V4.317A.452.452,0,0,0,9.7,3.866Zm-.151,6.617H1.727V4.467h1.5v.752h.6V4.467H7.441v.752h.6V4.467h1.5Z" transform="translate(-1.125 -2.813)"/><path class="a" d="M7.875,15.75h.6v.6h-.6Z" transform="translate(-6.07 -12.291)"/><path class="a" d="M14.063,15.75h.6v.6h-.6Z" transform="translate(-10.604 -12.291)"/><path class="a" d="M19.688,15.75h.6v.6h-.6Z" transform="translate(-14.725 -12.291)"/><path class="a" d="M25.875,15.75h.6v.6h-.6Z" transform="translate(-19.258 -12.291)"/><path class="a" d="M7.875,20.813h.6v.6h-.6Z" transform="translate(-6.07 -16.001)"/><path class="a" d="M14.063,20.813h.6v.6h-.6Z" transform="translate(-10.604 -16.001)"/><path class="a" d="M19.688,20.813h.6v.6h-.6Z" transform="translate(-14.725 -16.001)"/><path class="a" d="M25.875,20.813h.6v.6h-.6Z" transform="translate(-19.258 -16.001)"/><path class="a" d="M7.875,25.875h.6v.6h-.6Z" transform="translate(-6.07 -19.71)"/><path class="a" d="M14.063,25.875h.6v.6h-.6Z" transform="translate(-10.604 -19.71)"/><path class="a" d="M19.688,25.875h.6v.6h-.6Z" transform="translate(-14.725 -19.71)"/><path class="a" d="M25.875,25.875h.6v.6h-.6Z" transform="translate(-19.258 -19.71)"/></g></g></svg>